<svg id="Warstwa_1" data-name="Warstwa 1" xmlns="http://www.w3.org/2000/svg" viewBox="0 0 631.8125 933.11591"><defs><style>.cls-1{fill:#1d1d1b;}.cls-2{fill:none;}.cls-3{fill:#fff;}</style></defs><title>logo</title><path class="cls-1" d="M167.69592,765.08136q13.07694,5.02459,36.33167,5.0246h42.81653q21.25762,0,31.86529-2.74836a44.0716,44.0716,0,0,0,18.12311-9.27612q7.47236-6.44174,11.20837-18.16577c2.49109-7.81634,3.6933-17.307,3.6933-28.55884,0-10.04907-1.417-18.98187-4.33728-26.75506A43.77968,43.77968,0,0,0,293.955,665.57739a46.05591,46.05591,0,0,0-19.62592-9.70593c-7.00018-1.50317-18.03723-2.27588-33.02508-2.27588H200.42017q-17.77919,0-26.45429,2.44769a47.539,47.539,0,0,0-16.83465,9.1474q-8.18079,6.6353-13.27015,18.93879-5.08876,12.2394-5.11029,29.37463,0,20.35593,7.94489,33.45422Q154.61883,760.03525,167.69592,765.08136Zm3.951-59.26428c2.23309-.902,7.60108-1.37451,16.19031-1.37451h77.00085c7.17194,0,11.89594.47253,14.08594,1.46014,2.14728.94476,3.2638,2.92029,3.2638,5.96948,0,2.92029-1.20209,4.89569-3.607,5.88361-2.36224,1.0307-7.5155,1.546-15.41742,1.546H187.83722c-8.58923,0-13.95722-.51526-16.19031-1.546-2.23321-.98792-3.34973-3.00611-3.34973-6.01264Q168.29718,707.23448,171.64691,705.81708Z" transform="translate(-105.03857 -128.71759)"/><path class="cls-1" d="M332.80377,972.45856H482.78638V627.6203H606.08887V525.14081H482.78638V132.5769H284.28772L154.69989,525.14081V627.6203H332.80377ZM266.80652,525.14081,332.80377,269.5119V525.14081Z" transform="translate(-105.03857 -128.71759)"/><path class="cls-2" d="M171.64691,717.7558c2.23309,1.0307,7.60108,1.546,16.19031,1.546h75.32617c7.90192,0,13.05518-.51526,15.41742-1.546,2.40491-.98792,3.607-2.96332,3.607-5.88361,0-3.04919-1.11652-5.02472-3.2638-5.96948-2.19-.98761-6.914-1.46014-14.08594-1.46014H187.83722c-8.58923,0-13.95722.47253-16.19031,1.37451q-3.34981,1.41678-3.34973,5.92608C168.29718,714.74969,169.4137,716.76788,171.64691,717.7558Z" transform="translate(-105.03857 -128.71759)"/><path class="cls-1" d="M540.55328,220.35767a43.431,43.431,0,0,0-15.33648,4.92291,29.23958,29.23958,0,0,0-11.7862,12.25958c-2.93469,5.53833-4.40222,12.544-4.40222,20.96961a39.97438,39.97438,0,0,0,4.63892,19.59643,38.70624,38.70624,0,0,0,13.91638,14.34247l-15.24188-.94647v56.99109H696.3797V292.44867H572.50427c-15.05218,0-23.95129-.37836-26.744-1.18317-2.79272-.75744-4.16552-3.21869-4.16552-7.38421,0-3.88153,1.3255-6.29578,4.0235-7.14759,2.698-.89941,11.171-1.3255,25.51348-1.3255H696.3797V219.36359H572.26788Q548.55307,219.36359,540.55328,220.35767Z" transform="translate(-105.03857 -128.71759)"/><path class="cls-2" d="M332.80377,269.5119,266.80652,525.14081h65.99725ZM295,457v0Z" transform="translate(-105.03857 -128.71759)"/><path class="cls-1" d="M662.96149,440.55951c-2.79291.85205-10.5083,1.27808-23.19422,1.27808H512.3418V497.8349H641.32947q24.06957,0,34.45971-2.60364A30.05617,30.05617,0,0,0,692.877,483.44507q6.81637-9.15958,6.81641-23.57288a40.45468,40.45468,0,0,0-5.06488-20.35388A41.29957,41.29957,0,0,0,679.434,424.65509l16.94574.94678v-56.9914H512.3418v56.04462H636.738c13.869,0,22.3894.47339,25.56079,1.51459,3.21869.99408,4.828,3.50281,4.828,7.47888C667.12677,437.43536,665.70691,439.755,662.96149,440.55951Z" transform="translate(-105.03857 -128.71759)"/><path class="cls-1" d="M145.79382,855.39539h26.4115v-10.908h84.81677c16.61988,0,27.14148-.47248,31.65058-1.4173a22.02942,22.02942,0,0,0,11.9389-7.043,26.2332,26.2332,0,0,0,6.65662-13.05524c.98761-4.98187,1.46008-13.22729,1.46008-24.82238V777.66431H281.80151c0,8.28857-.6441,13.01275-1.88964,14.12927-1.24531,1.15942-7.38648,1.71753-18.38068,1.71753H172.20532V779.81158h-26.4115v13.69953H119.51117v50.97626h26.28265Z" transform="translate(-105.03857 -128.71759)"/><path class="cls-1" d="M659.12708,802.18365q-13.84865-5.32122-38.47577-5.321H575.3078q-22.51245,0-33.74591,2.91058a46.66212,46.66212,0,0,0-19.19251,9.82367q-7.9138,6.82188-11.87042,19.23792c-2.63788,8.27752-3.91125,18.32849-3.91125,30.24432,0,10.64209,1.501,20.10181,4.59356,28.33386a46.36671,46.36671,0,0,0,14.235,20.14765A48.778,48.778,0,0,0,546.20081,917.839c7.4132,1.59161,19.1015,2.41028,34.97375,2.41028h43.297q18.82865,0,28.01562-2.59229a50.339,50.339,0,0,0,17.828-9.68707q8.6638-7.02677,14.05328-20.05682,5.38933-12.96177,5.41223-31.108,0-21.55755-8.41382-35.42883Q672.97562,807.52756,659.12708,802.18365Zm-4.1839,62.76221c-2.36518.955-8.05011,1.45532-17.14588,1.45532H556.25189c-7.59521,0-12.598-.5003-14.9176-1.54632-2.274-1.00055-3.4563-3.09259-3.4563-6.32178,0-3.09259,1.27332-5.18457,3.82019-6.23047,2.50128-1.09173,7.95892-1.63733,16.32733-1.63733H637.7973c9.09577,0,14.7807.5456,17.14588,1.63733,2.36493,1.0459,3.5473,3.18347,3.5473,6.36707S657.30811,863.94531,654.94318,864.94586Z" transform="translate(-105.03857 -128.71759)"/><path class="cls-1" d="M509.7713,707.04l13.32568,3.50189a46.188,46.188,0,0,0-12.37072,14.96271,38.46038,38.46038,0,0,0-4.13855,17.64618q0,13.23486,7.0039,22.78552,6.95829,9.61917,16.50928,12.18872c6.32147,1.72827,16.00891,2.59229,28.97058,2.59229h79.68079c13.05261,0,21.60284-.273,25.55975-.864a29.297,29.297,0,0,0,12.27936-5.09387,27.82788,27.82788,0,0,0,9.73273-12.416,48.54333,48.54333,0,0,0,3.4566-19.19262,42.27936,42.27936,0,0,0-3.7749-17.78247,44.27362,44.27362,0,0,0-11.552-14.82642h51.02838V656.6936H509.7713Zm32.10889,5.13922c2.68329-1.09161,8.73211-1.63733,18.2373-1.63733h76.22418c9.86908,0,16.00892.45471,18.46491,1.45532,2.45593.955,3.6839,3.09259,3.6839,6.36719,0,3.41089-1.41,5.63953-4.22962,6.8219-2.77429,1.1369-8.77777,1.72833-17.91919,1.72833H561.89111c-10.50573,0-17.10034-.50043-19.87451-1.54632-2.77429-1.00068-4.13861-3.229-4.13861-6.59461C537.878,715.49908,539.1969,713.31616,541.88019,712.1792Z" transform="translate(-105.03857 -128.71759)"/><path class="cls-1" d="M734.34247,161.426q-2.48529-8.87558-7.24231-13.77435a20.90071,20.90071,0,0,0-10.887-6.20111c-4.0708-.8045-12.16523-1.23053-24.28272-1.23053V128.71759h-29.111V140.22H512.3418v55.997H662.81946v13.34863h29.111V185.99268h5.82208q7.45533,0,9.08844,3.12408c1.0412,2.083,1.6092,8.89911,1.6092,20.44885h28.40087V189.02209C736.85107,176.52588,736.04657,167.34271,734.34247,161.426Z" transform="translate(-105.03857 -128.71759)"/><path class="cls-1" d="M509.7713,928.34479v45.0249q28.65234,6.2763,60.07886,11.59741-25.17279,4.02494-60.07886,11.734v52.347l92.32416-25.96894,84.50165,21.46649V996.70111q-16.30463-4.02547-61.44355-11.734,7.36789-.81856,61.44355-11.59741v-45.0249l-84.50165,23.1947Z" transform="translate(-105.03857 -128.71759)"/><path class="cls-2" d="M278.924,916.12006c-2.19-.98755-6.914-1.46015-14.08594-1.46015H187.83722c-8.58923,0-13.95722.4726-16.19031,1.37427q-3.34981,1.41723-3.34973,5.92639c0,3.00641,1.11652,5.02472,3.34973,6.01233,2.23309,1.03088,7.60108,1.5462,16.19031,1.5462h75.32617c7.90192,0,13.05518-.51532,15.41742-1.5462,2.40491-.98761,3.607-2.96313,3.607-5.88342C282.18781,919.04028,281.07129,917.06488,278.924,916.12006Z" transform="translate(-105.03857 -128.71759)"/><path class="cls-1" d="M293.955,875.79437a46.05645,46.05645,0,0,0-19.62592-9.7055c-7.00018-1.5033-18.03723-2.27631-33.02508-2.27631H200.42017q-17.77919,0-26.45429,2.448a47.54167,47.54167,0,0,0-16.83465,9.1474q-8.18079,6.63483-13.27015,18.9389-5.08876,12.23932-5.11029,29.37451,0,20.35593,7.94489,33.45429,7.92315,13.07683,21.00024,18.12305,13.07694,5.0245,36.33167,5.02465h42.81653q21.25762,0,31.86529-2.74847a44.07088,44.07088,0,0,0,18.12311-9.27612q7.47236-6.4422,11.20837-18.16608c2.49109-7.816,3.6933-17.30688,3.6933-28.55853,0-10.04907-1.417-18.98187-4.33728-26.75507A43.78242,43.78242,0,0,0,293.955,875.79437ZM278.58081,927.9729c-2.36224,1.03088-7.5155,1.5462-15.41742,1.5462H187.83722c-8.58923,0-13.95722-.51532-16.19031-1.5462-2.23321-.98761-3.34973-3.00592-3.34973-6.01233q0-4.50924,3.34973-5.92639c2.23309-.90167,7.60108-1.37427,16.19031-1.37427h77.00085c7.17194,0,11.89594.4726,14.08594,1.46015,2.14728.94482,3.2638,2.92022,3.2638,5.96942C282.18781,925.00977,280.98572,926.98529,278.58081,927.9729Z" transform="translate(-105.03857 -128.71759)"/><path class="cls-1" d="M172.20532,988.48315h-26.4115v21.38654h-5.28241q-6.76364,0-8.24542-2.83429c-.94482-1.88959-1.46008-8.07373-1.46008-18.55225H105.03857v18.63813c0,11.3374.73035,19.669,2.27631,25.03692q2.25439,8.05243,6.57074,12.4972a18.961,18.961,0,0,0,9.87726,5.62585c3.6933.73022,11.037,1.1167,22.03094,1.1167v10.43555h26.4115V1051.398H489.75867v-50.80438H172.20532Z" transform="translate(-105.03857 -128.71759)"/><path class="cls-3" d="M172.9675,1033.4378v-14.8527h15.7601v2.6581H176.6205v3.8755h6.516v2.7632h-6.516v5.5559Zm22.5746-2.8451h11.97209v-9.2792H195.5421v9.2792Zm-3.6182-8.5065a3.73458,3.73458,0,0,1,.7903-2.7632,4.62108,4.62108,0,0,1,3.0677-.7379h11.49219a4.62672,4.62672,0,0,1,3.0796.7379,3.764,3.764,0,0,1,.7786,2.7632v7.8389a3.73243,3.73243,0,0,1-.7962,2.7752,4.63462,4.63462,0,0,1-3.062.7375H195.7819a4.62141,4.62141,0,0,1-3.0677-.7375,3.75882,3.75882,0,0,1-.7903-2.7752v-7.8389Zm34.31849-.843v12.1946h-3.6178v-12.1946h-7.1717v-2.6581h17.9788v2.6581Zm15.128,9.3495h11.9721v-9.2792h-11.9721v9.2792Zm-3.6182-8.5065a3.73458,3.73458,0,0,1,.7903-2.7632,4.62108,4.62108,0,0,1,3.0677-.7379h11.4922a4.6269,4.6269,0,0,1,3.0796.7379,3.764,3.764,0,0,1,.7786,2.7632v7.8389a3.73243,3.73243,0,0,1-.7962,2.7752,4.63462,4.63462,0,0,1-3.062.7375h-11.4922a4.62141,4.62141,0,0,1-3.0677-.7375,3.75882,3.75882,0,0,1-.7903-2.7752v-7.8389Zm38.7445,11.5566v-4.2035h-13.7404v-3.0385l13.5823-11.2989h3.9809v11.2989h4.3909v3.0385h-4.3909v4.2035Zm0-7.242v-8.1082l-9.9173,8.1082Zm13.875,7.037v-14.8527h15.7601v2.6581h-12.107v3.8755h6.516v2.7632h-6.516v5.5559Zm22.9142-14.8527v12.0719h10.3445v-12.0719h3.6533v11.3344a3.67861,3.67861,0,0,1-.8139,2.7688,4.70312,4.70312,0,0,1-3.0968.7495h-9.8297a4.63364,4.63364,0,0,1-3.0617-.7375,3.73768,3.73768,0,0,1-.7963-2.7808v-11.3344Zm20.6016,14.8527v-14.8527h2.488l12.6045,9.8589v-9.8589h3.2786v14.8527H349.753l-12.5693-10.0168v10.0168Zm25.0042,0v-14.8527h13.3421a4.22377,4.22377,0,0,1,2.6872.6792,2.68517,2.68517,0,0,1,.8255,2.2014v1.7855a2.25367,2.25367,0,0,1-.65,1.6626,3.48222,3.48222,0,0,1-1.8907.8781,3.27537,3.27537,0,0,1,1.9493.9485,2.654,2.654,0,0,1,.6968,1.8794v1.9026a2.41019,2.41019,0,0,1-1.1475,2.1835,6.56534,6.56534,0,0,1-3.4659.7319Zm11.6795-12.4347h-8.1141v3.5183h8.1141a2.42247,2.42247,0,0,0,1.2822-.2398.93479.93479,0,0,0,.3452-.8254v-1.4051a.91359.91359,0,0,0-.3336-.8139,2.44085,2.44085,0,0,0-1.2938-.2341Zm0,5.9715h-8.1141v3.7879h8.1141a2.37491,2.37491,0,0,0,1.3933-.2928,1.23108,1.23108,0,0,0,.3688-1.0245v-1.1358a1.26573,1.26573,0,0,0-.3688-1.0364,2.3218,2.3218,0,0,0-1.3933-.2984Zm14.6654,3.6181h11.9721v-9.2792h-11.9721v9.2792Zm-3.6182-8.5065a3.73458,3.73458,0,0,1,.7903-2.7632,4.62108,4.62108,0,0,1,3.0677-.7379h11.4922a4.6269,4.6269,0,0,1,3.0796.7379,3.764,3.764,0,0,1,.7786,2.7632v7.8389a3.73243,3.73243,0,0,1-.7962,2.7752,4.63462,4.63462,0,0,1-3.062.7375h-11.4922a4.62141,4.62141,0,0,1-3.0677-.7375,3.75882,3.75882,0,0,1-.7903-2.7752v-7.8389Zm23.9389,11.3516,7.3412-7.6167-7.4761-7.236h4.8534l4.9938,4.8008,4.701-4.8008h4.18l-6.7734,6.8089,8.3543,8.0438h-4.9587l-5.6905-5.5559-5.2339,5.5559Zm27.7027-5.4388h.6324a.75768.75768,0,0,1,.6557.2636,1.96641,1.96641,0,0,1,.1873,1.0245v2.8451a1.82786,1.82786,0,0,1-.2049,1.0655c-.1406.1582-.5621.2401-1.2705.2401h-3.138a.74685.74685,0,0,1-.6556-.2752,1.99134,1.99134,0,0,1-.1874-1.0304v-2.8451a1.78513,1.78513,0,0,1,.205-1.048c.1406-.1579.5621-.2401,1.2705-.2401Zm7.8684,5.4388v-14.8527h13.3773a4.189,4.189,0,0,1,2.6696.6792,2.71177,2.71177,0,0,1,.8139,2.2071v3.2845a2.69794,2.69794,0,0,1-.8255,2.207,4.17379,4.17379,0,0,1-2.658.6792h-9.8119v5.7957Zm11.8375-12.2941h-8.2721v3.9399h8.2721a2.21537,2.21537,0,0,0,1.294-.2753,1.10337,1.10337,0,0,0,.3512-.9249v-1.5395a1.10462,1.10462,0,0,0-.3512-.9253,2.21825,2.21825,0,0,0-1.294-.2749Zm10.222,12.2941v-14.8527h3.653v12.0719h11.6445v2.7808Z" transform="translate(-105.03857 -128.71759)"/></svg>