<svg id="Warstwa_1" data-name="Warstwa 1" xmlns="http://www.w3.org/2000/svg" xmlns:xlink="http://www.w3.org/1999/xlink" viewBox="0 0 268.55469 268.55509"><defs><style>.cls-1{fill:url(#Gradient_bez_nazwy_61);}.cls-2,.cls-3,.cls-4,.cls-5,.cls-6,.cls-7,.cls-8{fill:#e51a1a;}.cls-2{opacity:0.6;}.cls-4{opacity:0.7;}.cls-5{opacity:0.9;}.cls-6{opacity:0.4;}.cls-7{opacity:0.5;}.cls-8{opacity:0.3;}</style><radialGradient id="Gradient_bez_nazwy_61" cx="134.27735" cy="134.27755" r="174.13098" gradientUnits="userSpaceOnUse"><stop offset="0.70813" stop-color="#fff"/><stop offset="1" stop-color="#ed1c24" stop-opacity="0.4"/></radialGradient></defs><title>sidenavi-packets</title><rect class="cls-1" width="268.55469" height="268.55509"/><path class="cls-2" d="M72.91941,167.81374l3.1328-1.6923a61.0959,61.0959,0,0,1-5.959-41.1983l-2.9355-.6064c.2773-1.3389.6133-2.6602.9726-3.9766l-.5546-.1523a64.38539,64.38539,0,0,0,2.3769,41.291A65.09177,65.09177,0,0,0,72.91941,167.81374Zm-13.25-17.1513,1.7012-.3282a68.0462,68.0462,0,0,1-.9863-7.123l-1.709.1514A72.42718,72.42718,0,0,0,59.66941,150.66244Zm44.03319,48.2002a66.84736,66.84736,0,0,1-27.834-22.0664l-.5254.3877a67.64425,67.64425,0,0,0,34.81839,24.7304c.0644-.207.12691-.4179.1914-.6289A67.00846,67.00846,0,0,1,103.7026,198.86264Zm-38.13669-6.126-.293.25a84.83088,84.83088,0,0,0,9.4942,9.4199l.248-.2949A84.61318,84.61318,0,0,1,65.56591,192.73664Zm35.64839-104.082a56.4788,56.4788,0,0,0-26.205,35.4531l.3789.0918a55.95224,55.95224,0,0,1,26.02339-35.2158Zm74.65821,4.6621-2.75,2.5996a59.64857,59.64857,0,0,1,14.19139,56.4804l3.6504.9883a63.39792,63.39792,0,0,0-15.09179-60.0683ZM182.228,165.135l3.332,1.7998a63.46187,63.46187,0,0,0,4.0821-9.2724l-3.5743-1.2442c-.4394,1.2598-.916,2.5049-1.4394,3.7325Q183.54435,162.69654,182.228,165.135ZM73.99561,141.87144l-.3692.0293a56.50246,56.50246,0,0,0,21.98049,40.2695l.2324-.3047a56.21855,56.21855,0,0,1-21.84369-39.9941ZM51.15381,169.053a84.71934,84.71934,0,0,1-6.1641-30.4844l1.9004-.0293a82.97645,82.97645,0,0,1,3.3984-24.7051l-1.8261-.539a84.65063,84.65063,0,0,1,7.539-17.7949l1.6543.9336a83.11315,83.11315,0,0,1,70.52149-42.1592l-.0429-1.9004a85.27491,85.27491,0,0,1,45.9394,12.3633l.1992-.3262A85.30654,85.30654,0,0,0,54.80611,177.73854l.3399-.1816A85.30418,85.30418,0,0,1,51.15381,169.053Zm126.35149-62.2031-.3242.207a56.043,56.043,0,0,1-.93159,61.8994l.31049.2197a56.427,56.427,0,0,0,.9453-62.3261Zm-53.4199,86.2578a56.33315,56.33315,0,0,1-16.125-4.1758c-.2246-.0957-.4453-.2041-.66789-.3027l-.15631.3476a56.69826,56.69826,0,0,0,16.90431,4.5147Zm12.0137-111.96a56.23542,56.23542,0,0,0-6.9863-.3349l.0058.3838a55.84738,55.84738,0,0,1,6.9395.333ZM96.6538,186.28744l-2.11129,3.1445a63.61235,63.61235,0,0,0,16.67959,7.9356l1.11141-3.6172a59.33213,59.33213,0,0,1-15.67971-7.4629ZM94.3276,48.94854a95.26926,95.26926,0,0,0,25.5918,183.1016l.1816-1.7198a93.48916,93.48916,0,1,1,84.4297-36.5898l1.377,1.043A95.26653,95.26653,0,0,0,94.3276,48.94854Zm132.4785,104.1162-.6582-.1074a97.44174,97.44174,0,0,1-2.6777,11.7773l.6387.1856A97.26584,97.26584,0,0,0,226.8061,153.06474ZM160.105,90.01594a56.06166,56.06166,0,0,1,11.6914,9.9394l.28711-.2587A56.48868,56.48868,0,0,0,160.312,89.69174Zm-5.9922,162.2793a116.99971,116.99971,0,0,0,60.8711-33.9014l-.1036-.0976q2.34375-2.4624,4.543-5.0537l-2.55079-2.1622a114.08968,114.08968,0,0,1-149.373,21.7539,114.77727,114.77727,0,0,1-13.2617-10.1015l-1.4766,1.6689a115.9494,115.9494,0,0,1-24.6621-30.7041l-1.0059.5469A117.59846,117.59846,0,0,0,154.1128,252.29524Zm60.1621-104.9238.3789.0468a84.88621,84.88621,0,0,0-5.5879-42c-.0703-.1757-.1445-.3476-.2168-.5215l-.3555.1426c.0703.1748.1446.3457.2168.5225A84.54643,84.54643,0,0,1,214.2749,147.37144ZM86.5678,230.92214l-2.8007,5.9493a110.23929,110.23929,0,0,0,107.416-7.5625l-3.6172-5.502a103.67213,103.67213,0,0,1-100.9981,7.1152Zm122.1465-60.8906a85.96586,85.96586,0,0,0,3.6875-10.8848l-.3711-.1015a85.47386,85.47386,0,0,1-3.6699,10.8418Zm-58.791,62.7129a97.46618,97.46618,0,0,1-88.34179-25.7988l-.4668.4668A98.11992,98.11992,0,0,0,167.521,227.98664l-.2598-.6182A97.40338,97.40338,0,0,1,149.9233,232.74444ZM80.06,227.56764q-3.03223-1.70505-5.95109-3.6005-4.0254-2.63085-7.8008-5.6241l-4.0938,5.1534a111.196,111.196,0,0,0,14.627,9.8115Zm-40.02149-52.2177-.6191.2539a97.60555,97.60555,0,0,0,7.4141,14.1426l.5644-.3497A96.70524,96.70524,0,0,1,40.03851,175.34994Zm161.58789,27.9687a97.57813,97.57813,0,0,1-20.5664,16.9922l.3496.5674a98.09012,98.09012,0,0,0,20.7071-17.1065ZM123.0971,13.10875c-20.76359,1.3046-30.1289,5.4277-30.1289,5.4277a123.08974,123.08974,0,0,0-29.64249,13.6973l1.6054,2.539a121.44765,121.44765,0,0,1,58.62109-18.666l-.166-3.0078C123.29051,13.10285,123.24951,13.33135,123.0971,13.10875Zm-44.3984,19.625-.5039-1.0215A117.60481,117.60481,0,0,0,25.271,83.78834c.3379.1719.6797.3467,1.0175.5215A116.43055,116.43055,0,0,1,78.6987,32.73375Zm49.6602-19.7852.0468,3.0039a120.11283,120.11283,0,0,1,12.4942.4863l.2597-2.97261A124.8751,124.8751,0,0,0,128.3589,12.94855ZM56.12641,65.42124l-4.7382-4.5664A110.67888,110.67888,0,0,0,32.728,86.98854l5.8535,3.004a103.42382,103.42382,0,0,1,17.5449-24.5713Zm7.6426,57.8564.6445.1309a67.30439,67.30439,0,0,1,3.9024-12.3575c.4707-1.1093.9785-2.205,1.5078-3.289l-.5879-.2891A67.99121,67.99121,0,0,0,63.769,123.27764ZM94.9721,30.41145l1.94541,5.875a106.27557,106.27557,0,0,1,72.332,2.3359l1.93359-4.8457c2.2051.8848,4.3672,1.8594,6.5097,2.8789l.43171-.9062a111.93642,111.93642,0,0,0-71.40241-8.48629A114.07312,114.07312,0,0,0,94.9721,30.41145Zm79.0196-2.1172-.4199,1.0645a116.827,116.827,0,0,1,19.96671,10.43549q2.63384,1.71975,5.17,3.5859l.67379-.9179A118.05164,118.05164,0,0,0,173.9917,28.29425ZM48.16161,83.97494c.2344-.3574.4863-.7012.7246-1.0547l-.5508-.375a98.70612,98.70612,0,0,0-12.8672,27.5664l.6426.1914A97.85552,97.85552,0,0,1,48.16161,83.97494ZM168.8803,47.90554a97.29235,97.29235,0,0,1,52.3633,55.253l.627-.2325a98.19412,98.19412,0,0,0-52.7188-55.6435Zm23.7383,64.0889a67.30328,67.30328,0,0,0-25.3203-31.0605l-.05079.0781c-1.08791-.7188-2.18751-1.418-3.31441-2.0703l-.9668,1.6611a65.62663,65.62663,0,0,1,27.3515,82.3994,66.42809,66.42809,0,0,1-4.3886,8.5254l1.0937.668a66.67251,66.67251,0,0,1-14.9082,17.0586l.4121.5117A67.63545,67.63545,0,0,0,192.6186,111.99444Zm-27.6172,103.083a84.9843,84.9843,0,0,0,20.752-13.2314l-.25-.2891a84.63883,84.63883,0,0,1-20.6602,13.1689Zm37.2793-106.9248A78.00353,78.00353,0,1,0,87.24751,202.596l.37109-.5684c-1.8554-1.209-3.6562-2.5107-5.4062-3.8809l2.2246-2.8359a73.75937,73.75937,0,0,1-26.68749-72.9414l-3.543-.7344a77.70859,77.70859,0,0,1,10.6406-26.0937l3.0469,1.9541a73.34951,73.34951,0,0,1,34.48829-28.5528c.5371-.2187,1.07621-.4257,1.61721-.6289l.543,1.4141a72.198,72.198,0,0,1,96.09959,82.1553l1.4785.3174a73.87254,73.87254,0,0,1-20.8867,38.0478l2.5195,2.5996a77.63169,77.63169,0,0,1-46.0527,21.4102l.0683.6738a78.05366,78.05366,0,0,0,64.5117-106.7793ZM96.0932,74.52474a70.77852,70.77852,0,0,0-21.66789,17.872l1.3496,1.0752A69.072,69.072,0,0,1,96.9253,76.04034ZM66.396,170.14094a70.79278,70.79278,0,0,0,10.7402,15.4121l1.2773-1.166a69.3696,69.3696,0,0,1-13.2128-20.9922,70.1655,70.1655,0,0,1-3.2579-10.3262l-1.6855.3955c.0117.0557.0215.1094.0332.1651Zm101.34179,8.6133a55.75505,55.75505,0,0,1-7.2129,5.583l.2051.3261a56.501,56.501,0,0,0,7.2656-5.621Zm-60.6446-98.1221c.44731-.1797.8946-.3525,1.3379-.5205l.4532,1.1719c1.69921-.6387,3.4121-1.1856,5.1308-1.6621L112.7319,74.97a65.56765,65.56765,0,0,0-6.9707,2.3584,64.56882,64.56882,0,0,0-18.2734,11.1738l2.3418,2.6934A61.03167,61.03167,0,0,1,107.0932,80.63214Zm-5.9648-3.8057-.2832-.5947A67.29362,67.29362,0,0,0,80.98,90.60574l.4746.4522A66.59745,66.59745,0,0,1,101.1284,76.82644Zm125.1758,2.6475-5.3223,3.1904a106.03924,106.03924,0,0,1,12.832,32.7647c.1739.8154.3321,1.6338.4844,2.4502l-2.1426.416c.5782,3.1035.9942,6.2021,1.2832,9.289l8.35361-.7832a114.12658,114.12658,0,0,0-1.918-12.6484A112.23365,112.23365,0,0,0,226.3042,79.47394Zm-1.6231-11.7793-.914.6719a115.75666,115.75666,0,0,1,18.3769,38.0088l1.1016-.3047A116.88363,116.88363,0,0,0,224.6811,67.69464Zm-85.6269-27.5488.0605-.6426a98.20524,98.20524,0,0,0-75.61719,25.3789l.4493.4902a97.73482,97.73482,0,0,1,75.10739-25.2265ZM223.6147,55.927l-2.2539,1.9844a120.1756,120.1756,0,0,1,23.4102,41.5078l2.8476-.9639A123.1565,123.1565,0,0,0,223.6147,55.927Zm-11.4023,48.2217a88.71028,88.71028,0,1,0-49.125,115.4375A88.71254,88.71254,0,0,0,212.2124,104.14874ZM95.3491,218.57644a88.31594,88.31594,0,1,1,67.5957.6534A88.0375,88.0375,0,0,1,95.3491,218.57644Z" transform="translate(0.48489 0.39075)"/><path class="cls-3" d="M176.70851,85.61754a68.21056,68.21056,0,0,0-5.35161-4.3614l-.9551,1.3125a63.8175,63.8175,0,0,1,5.2325,4.2481Z" transform="translate(0.48489 0.39075)"/><path class="cls-3" d="M140.396,56.22394l.041-.3574a79.59926,79.59926,0,0,0-12.5274-.375l.0176.3613A79.5516,79.5516,0,0,1,140.396,56.22394Z" transform="translate(0.48489 0.39075)"/><path class="cls-3" d="M195.1401,156.69174a66.43032,66.43032,0,0,0,3.39841-26.1026l-1.61321.128a64.75734,64.75734,0,0,1-3.3262,25.4687Z" transform="translate(0.48489 0.39075)"/><path class="cls-3" d="M141.4663,187.39874l-.0645-.3545a52.52212,52.52212,0,0,1-14.3652.6768l-.0313.3613A52.98363,52.98363,0,0,0,141.4663,187.39874Z" transform="translate(0.48489 0.39075)"/><path class="cls-3" d="M182.5913,150.29324a52.92592,52.92592,0,0,0-4.7461-41.041l-.3184.1817a52.40965,52.40965,0,0,1,4.7188,40.7597Z" transform="translate(0.48489 0.39075)"/><path class="cls-3" d="M167.1733,96.44264l.2344-.2568a52.93482,52.93482,0,0,0-40.8164-13.5039l.0351.3574a52.69676,52.69676,0,0,1,40.5469,13.4033Z" transform="translate(0.48489 0.39075)"/><path class="cls-4" d="M82.855,161.74734l-3.1309,1.6592a59.41467,59.41467,0,0,0,48.7695,31.4688l.2188-3.5411a55.892,55.892,0,0,1-45.8574-29.5869Z" transform="translate(0.48489 0.39075)"/><path class="cls-3" d="M190.2182,158.33624l.57431.2266A63.04616,63.04616,0,0,0,195.1948,136.01l-.61329-.0078A62.38506,62.38506,0,0,1,190.2182,158.33624Z" transform="translate(0.48489 0.39075)"/><path class="cls-3" d="M191.855,117.12534l.5878-.1778a63.68436,63.68436,0,0,0-6.371-14.3183l-.5235.3222a63.16783,63.16783,0,0,1,5.2344,10.9571C191.1714,114.971,191.5249,116.04324,191.855,117.12534Z" transform="translate(0.48489 0.39075)"/><path class="cls-3" d="M183.1147,160.76l-1.0586-.5136c-.7539,1.5273-1.5781,2.9961-2.4492,4.4218l3.8555,2.3643a61.803,61.803,0,0,0,3.2636-6.0752,60.53751,60.53751,0,0,0,5.3594-19.3428l-3.3261-.3467a57.19388,57.19388,0,0,1-5.0606,18.2803Q183.4146,160.15894,183.1147,160.76Z" transform="translate(0.48489 0.39075)"/><path class="cls-3" d="M145.4663,195.32064a61.50112,61.50112,0,0,1-71.45309-38.9121,62.70007,62.70007,0,0,1-2.4512-8.6446l-1.1758.2422a62.45909,62.45909,0,0,1-.709-21.2168l-.6094-.0879a63.36547,63.36547,0,0,0,73.21879,71.1631l-.0137-.0869c1.2051-.2031,2.4043-.4277,3.5938-.7012Z" transform="translate(0.48489 0.39075)"/><path class="cls-3" d="M189.146,80.14284l-1.2832,1.2364a77.81148,77.81148,0,0,1,13.4824,19.0879l1.5937-.7989a79.77853,79.77853,0,0,1,3.64461,8.4532,78.95916,78.95916,0,0,1,2.58,8.5546l-1.73041.419a77.87289,77.87289,0,0,1-21.3008,73.9892l1.24221,1.2735a79.84508,79.84508,0,0,1-39.36131,20.9316l.0722.3516a79.9557,79.9557,0,0,0,17.4844-150.751,80.63531,80.63531,0,0,0-8.2109-3.2832l-.1153.3418a80.46576,80.46576,0,0,1,8.17391,3.2695A79.43491,79.43491,0,0,1,189.146,80.14284Z" transform="translate(0.48489 0.39075)"/><path class="cls-3" d="M222.0854,120.73664l.6172-.0977a92.4503,92.4503,0,0,0-8.83009-27.1054l-.56251.2802a91.681,91.681,0,0,1,8.5957,25.7364C221.976,119.94364,222.0229,120.34214,222.0854,120.73664Z" transform="translate(0.48489 0.39075)"/><path class="cls-3" d="M187.7241,207.71714l.3691.4785a92.02465,92.02465,0,0,0,35.53131-65.7598l-.62111-.0498a91.58827,91.58827,0,0,1-35.2793,65.3311Z" transform="translate(0.48489 0.39075)"/><path class="cls-3" d="M233.79051,174.17214l.99609.377a110.21274,110.21274,0,0,0,2.9121-69.5195c-.3398.0976-.6875.1972-1.03119.2949a109.08721,109.08721,0,0,1-2.877,68.8476Z" transform="translate(0.48489 0.39075)"/><path class="cls-3" d="M228.3276,137.34994l6.166.0947a103.68094,103.68094,0,0,0-3.9492-29.833l-5.9297,1.6894a96.87614,96.87614,0,0,1,3.7129,28.0489Z" transform="translate(0.48489 0.39075)"/><path class="cls-3" d="M163.78851,235.72784a104.889,104.889,0,0,0,54.31649-39.8789,106.5924,106.5924,0,0,0,6.0293-9.6748l-5.0899-2.7774a100.62476,100.62476,0,0,1-5.6934,9.1172,99.04838,99.04838,0,0,1-45.3242,35.5684l1.7754,4.5547c-2.0742.8066-4.17969,1.5215-6.2969,2.1953Z" transform="translate(0.48489 0.39075)"/><path class="cls-3" d="M56.91941,163.36754a80.61547,80.61547,0,0,0,4.4414,9.8125l.3203-.168a80.14034,80.14034,0,0,1-4.4277-9.7715Z" transform="translate(0.48489 0.39075)"/><path class="cls-3" d="M67.61471,182.43974l-.291.21a79.5443,79.5443,0,0,0,30.70119,25.1787c.1621.0762.3222.1465.4824.2187l.1523-.3261c-.16209-.0733-.3222-.1426-.4824-.2188A79.2071,79.2071,0,0,1,67.61471,182.43974Z" transform="translate(0.48489 0.39075)"/><path class="cls-3" d="M44.34521,73.90364a106.9792,106.9792,0,0,1,84.6113-45.46289l-.05661-2.0879a108.67256,108.67256,0,0,1,36.5332,5.2402l.3398-1.0175A110.16977,110.16977,0,0,0,21.68111,134.26784l.1328.002q-.02625,3.186.125,6.3652l3.1289-.1513A106.46347,106.46347,0,0,1,44.34521,73.90364Z" transform="translate(0.48489 0.39075)"/><path class="cls-5" d="M134.0327,43.94854l.0195-.6191a91.94821,91.94821,0,0,0-86.01369,54.0009l.5723.2569a91.34085,91.34085,0,0,1,85.42189-53.6387Z" transform="translate(0.48489 0.39075)"/><path class="cls-3" d="M154.9721,46.886a90.92761,90.92761,0,0,1,14.02541,4.9082l.26179-.5703a91.582,91.582,0,0,0-14.125-4.9395Z" transform="translate(0.48489 0.39075)"/><path class="cls-3" d="M123.5034,39.16924l-.4961-6.14839a104.26064,104.26064,0,0,0-16.293,2.64249l1.4707,5.9903q3.1671-.7734,6.3789-1.3438Q119.0024,39.53644,123.5034,39.16924Z" transform="translate(0.48489 0.39075)"/><path class="cls-6" d="M101.58351,43.52084l-1.88871-5.8653a103.30389,103.30389,0,0,0-68.70309,73.9092l5.9961,1.4531a97.15828,97.15828,0,0,1,64.5957-69.497Z" transform="translate(0.48489 0.39075)"/><path class="cls-3" d="M104.4272,231.03154a99.40318,99.40318,0,0,1-29.75189-14.2197c-.6407-.4483-1.2715-.9072-1.9004-1.3682l1.2011-1.6562c-2.3808-1.7559-4.6464-3.6114-6.8222-5.5371l-5.2188,5.8808a106.78508,106.78508,0,0,0,9.4082,7.4317,105.13969,105.13969,0,0,0,31.48049,15.0595Z" transform="translate(0.48489 0.39075)"/><path class="cls-3" d="M49.65181,176.71714a91.2414,91.2414,0,0,0,5.7383,9.8437l.5195-.3476a91.05086,91.05086,0,0,1-5.7011-9.7774Z" transform="translate(0.48489 0.39075)"/><path class="cls-3" d="M43.07761,111.08334a91.96292,91.96292,0,0,0-3.2305,24.9629l.627-.003a91.49052,91.49052,0,0,1,3.2051-24.7949Z" transform="translate(0.48489 0.39075)"/><path class="cls-3" d="M94.0893,216.27574A89.26958,89.26958,0,1,0,78.0288,64.08914l.9746,1.295a87.60808,87.60808,0,1,1-34.39059,79.0751l-1.6114.167A89.21794,89.21794,0,0,0,94.0893,216.27574Z" transform="translate(0.48489 0.39075)"/><path class="cls-3" d="M111.6694,242.60384a108.47912,108.47912,0,0,1-36.90229-14.2637l-.5606.9141a109.55352,109.55352,0,0,0,37.26759,14.3945Z" transform="translate(0.48489 0.39075)"/><path class="cls-3" d="M241.9096,163.96514a113.789,113.789,0,0,1-28.1914,50.291l2.0391,1.9551c.0645-.0664.1289-.1289.1934-.1934l17.1543-22.9941a115.37615,115.37615,0,0,0,11.5293-28.3457Z" transform="translate(0.48489 0.39075)"/><path class="cls-3" d="M76.08541,237.26594a115.39014,115.39014,0,0,0,43.64849,13.7558l.2714-2.8007a112.61907,112.61907,0,0,1-42.58589-13.4375Z" transform="translate(0.48489 0.39075)"/><path class="cls-3" d="M201.6303,225.13114l1.7247,2.2012a117.17919,117.17919,0,0,0,9.0957-7.8379l-1.9571-2.0264A112.34693,112.34693,0,0,1,201.6303,225.13114Z" transform="translate(0.48489 0.39075)"/><path class="cls-3" d="M162.3393,221.49054a91.16941,91.16941,0,0,1-71.207-4.3223l-.2793.5606a92.01875,92.01875,0,0,0,71.6992,4.3613Z" transform="translate(0.48489 0.39075)"/><path class="cls-3" d="M150.6479,242.82164q-2.90325.5082-5.834.8544l.125,1.0606a110.65327,110.65327,0,0,0,26.4512-6.5488l-.3945-.9961A109.72218,109.72218,0,0,1,150.6479,242.82164Z" transform="translate(0.48489 0.39075)"/><path class="cls-3" d="M77.89211,159.63114l3.24219-1.4355c-.504-1.1426-.9747-2.3008-1.4024-3.4766q-.8847-2.4345-1.5449-4.9473l-3.43359.9004A59.61028,59.61028,0,0,0,77.89211,159.63114Z" transform="translate(0.48489 0.39075)"/><path class="cls-3" d="M107.728,85.45534a55.76259,55.76259,0,0,1,15.5117-4.9238l-.5683-3.5029a59.71106,59.71106,0,0,0-16.4961,5.2392Z" transform="translate(0.48489 0.39075)"/><path class="cls-3" d="M113.8061,85.95734c.2149-.0791.4356-.1455.65041-.2207l-.11521-.3399a53.14185,53.14185,0,0,0-14.461,7.7286l.2129.291A52.73155,52.73155,0,0,1,113.8061,85.95734Z" transform="translate(0.48489 0.39075)"/><path class="cls-3" d="M79.4819,143.37924a52.89167,52.89167,0,0,0,39.2344,43.2754l.0879-.3496a52.51525,52.51525,0,0,1-38.9688-42.9747Z" transform="translate(0.48489 0.39075)"/><path class="cls-3" d="M154.2866,72.22584a66.38965,66.38965,0,0,0-17.2148-3.6796l-.129,1.6152a65.47156,65.47156,0,0,1,31.3165,10.9033l.9023-1.3515c-.0449-.0293-.0859-.0596-.1289-.0899Z" transform="translate(0.48489 0.39075)"/><path class="cls-3" d="M103.9917,78.47684c.08981.1826.1816.3672.2715.5528a63.49888,63.49888,0,0,1,6.1035-2.5977,62.66108,62.66108,0,0,1,33.17581-2.7002l.11129-.6016A63.39829,63.39829,0,0,0,103.9917,78.47684Z" transform="translate(0.48489 0.39075)"/><path class="cls-3" d="M100.9194,201.61554a73.09823,73.09823,0,1,0,18.3242-138.2666l.1094.625c2.043-.3574,4.1094-.6172,6.1836-.8008l.291,3.3652a69.12,69.12,0,0,1,64.9473,32.8614l2.8945-1.7647a72.76639,72.76639,0,0,1,9.41211,24.6739l-3.33591.6093a68.7328,68.7328,0,0,1-5.3399,41.6192c-.2285.4922-.4648.9795-.705,1.4638l-1.2754-.6201A67.65935,67.65935,0,0,1,74.06,170.62724l-1.2168.7305a69.25534,69.25534,0,0,1-10.0449-39.416l-3.3887-.168a72.73147,72.73147,0,0,1,17.8282-44.125l-.4785-.418a73.15121,73.15121,0,0,0,24.16009,114.3848Z" transform="translate(0.48489 0.39075)"/><path class="cls-3" d="M96.6831,210.71024a83.12985,83.12985,0,1,0-40.23439-110.4658A83.12772,83.12772,0,0,0,96.6831,210.71024Zm6.789-153.1191a82.76115,82.76115,0,1,1-46.69719,42.8056A82.49473,82.49473,0,0,1,103.4721,57.59114Z" transform="translate(0.48489 0.39075)"/><path class="cls-3" d="M80.7593,122.73664l-.3497-.0899a52.70226,52.70226,0,0,0-1.3769,8.4961l.3594.0332A52.19792,52.19792,0,0,1,80.7593,122.73664Z" transform="translate(0.48489 0.39075)"/><path class="cls-3" d="M52.63821,126.93094a79.33109,79.33109,0,0,1,5.7187-22.2353l-.332-.1387a79.6403,79.6403,0,0,0-5.7422,22.3359Z" transform="translate(0.48489 0.39075)"/><path class="cls-3" d="M168.5073,173.51394l-.248-.2597a52.47624,52.47624,0,0,1-4.9649,4.2129l.2168.2871A52.59835,52.59835,0,0,0,168.5073,173.51394Z" transform="translate(0.48489 0.39075)"/><path class="cls-3" d="M157.394,80.43194a60.4723,60.4723,0,0,0-6.0859-2.4385l-1.06059,3.1612a57.87777,57.87777,0,0,1,5.73639,2.3046,56.99275,56.99275,0,0,1,24.705,22.0899l2.3985-1.4629c.666,1.0938,1.2832,2.2129,1.8769,3.3447l.4785-.2509A60.32779,60.32779,0,0,0,157.394,80.43194Z" transform="translate(0.48489 0.39075)"/><path class="cls-3" d="M78.3569,162.20534l4.5684-2.4199c-.0723-.1426-.1426-.2851-.2129-.4277l-4.7266,2.0918C78.1069,161.70244,78.2319,161.95534,78.3569,162.20534Z" transform="translate(0.48489 0.39075)"/><path class="cls-7" d="M103.9897,238.72584l2.541-8.8603-1.6347-.4688a97.65648,97.65648,0,0,1-29.24609-13.9785c-.166-.1172-.334-.2343-.5-.3535l1.1933-1.6455-1.3574-1.001c-2.2187-1.6367-4.4746-3.4668-6.7031-5.4414l-1.2734-1.1269-7.4766,8.4258,1.2754,1.1289a109.13848,109.13848,0,0,0,9.5586,7.5507,106.79841,106.79841,0,0,0,31.98829,15.3018Z" transform="translate(0.48489 0.39075)"/><path class="cls-5" d="M112.8569,245.50224l.7969-4.2578-1.6719-.3125a106.55967,106.55967,0,0,1-36.32419-14.041l-1.4512-.8926-2.3359,3.8145,1.4453.8896q1.64355,1.00935,3.3125,1.96l-2.8359,5.2783,1.4707.8135a116.65812,116.65812,0,0,0,44.289,13.959l1.7071.1816.6015-6.1856-1.6738-.1787Q116.49265,246.13364,112.8569,245.50224Z" transform="translate(0.48489 0.39075)"/><path class="cls-3" d="M101.1186,94.77374a50.99169,50.99169,0,0,1,13.2715-7.2197c.10741-.0401,2.2207-.7627,2.2207-.7627l-.918-2.7051a54.7793,54.7793,0,0,1,7.8204-1.877l1.2988-.2109.293,2.9024,1.6914-.17c1.6738-.167,3.375-.2519,5.0566-.2519a51.04145,51.04145,0,0,1,34.1758,13.2226l1.2578,1.1426,2.5254-2.7724-1.2617-1.1456a54.68258,54.68258,0,0,0-36.6914-14.2089c-1.8067,0-3.6368.0918-5.4375.2714l-1.3633.1368-.9805-6.0498-1.6797.2753a61.33981,61.33981,0,0,0-16.9668,5.3877l-1.5312.7442,2.6484,5.4326a54.636,54.636,0,0,0-7.6933,4.8516l-1.3399,1.0117,2.2285,3.0322Z" transform="translate(0.48489 0.39075)"/><path class="cls-3" d="M180.1303,151.35184l3.6133,1.0459.4785-1.622a54.91473,54.91473,0,0,0-4.8964-42.3614l-.8379-1.4824-3.27929,1.8613.83789,1.4785a51.03494,51.03494,0,0,1,3.5566,7.6758,50.44875,50.44875,0,0,1,1.0117,31.7637Z" transform="translate(0.48489 0.39075)"/><path class="cls-6" d="M164.7221,223.12824l-.93359-2.6436a91.82614,91.82614,0,0,0,22.254-12.164l1.74409,2.2617,1.3457-1.04a93.72346,93.72346,0,0,0,36.1875-66.9776l.1289-1.6904-2.832-.2256a90.76125,90.76125,0,0,0-.7891-18.1504l2.8262-.4433-.2735-1.6875a93.984,93.984,0,0,0-8.9921-27.6055l-.76569-1.5049L212.0268,92.553a90.51395,90.51395,0,0,0-41.6914-39.5967l1.1875-2.5859-1.5703-.7012a93.59572,93.59572,0,0,0-14.3887-5.0293l-1.6289-.4258-.7343,2.7012a89.77138,89.77138,0,0,0-17.4825-2.4629l.0879-2.7851-1.7148-.0391c-.7246-.0176-1.4512-.0254-2.17379-.0254a93.64657,93.64657,0,0,0-85.4278,55.0244l-.7051,1.5547,3.6758,1.6504.6992-1.543a90.28558,90.28558,0,0,1,26.2442-33.5322l2.26559,3.0078,1.3574-1.0234a86.26779,86.26779,0,0,1,51.8301-17.3477,85.96784,85.96784,0,0,1-.1172,171.9356,86.03374,86.03374,0,0,1-80.70119-56.5528,86.43941,86.43941,0,0,1-4.7343-20.4961l-.1778-1.6884-4.9941.5185.1777,1.6944a91.89245,91.89245,0,0,0,8.4102,29.9707l-2.3496,1.1894.7597,1.5156a93.9129,93.9129,0,0,0,5.8457,10.0254l.9454,1.4141,2.1796-1.457a90.53142,90.53142,0,0,0,32.6875,28.5908l-1.21871,2.4365,1.5234.7607a93.79513,93.79513,0,0,0,41.6739,9.8096h.0039a94.04342,94.04342,0,0,0,31.3457-5.3672Z" transform="translate(0.48489 0.39075)"/><path class="cls-7" d="M126.355,233.14484a99.38445,99.38445,0,0,1-71.76759-36.9922l-4.6192-5.749,2.4336-1.9522a97.45008,97.45008,0,0,1-7.8808-13.7773l-2.8946,1.085-2.5839-6.9073a99.70118,99.70118,0,0,1-6.3301-33.1142l-.002-.0606a99.4908,99.4908,0,0,1,9.5489-44.3428l3.1699-6.6582,2.6816,1.2754a96.97253,96.97253,0,0,1,22.6758-26.9677l-1.6563-2.377,6.0469-4.2148a99.58976,99.58976,0,0,1,10.51169-6.4043l6.502-3.416,1.3594,2.5625a97.73575,97.73575,0,0,1,26.61521-7.2071l7.32229-.9179,2.0058,16.2421-7.3047.9102a80.8931,80.8931,0,0,0-19.0586,4.793,80.23284,80.23284,0,1,0,92.0743,25.291l-4.5489-5.7959,2.7071-2.1221a84.67481,84.67481,0,0,0-28.0586-19.6191l-6.7442-2.9004,6.02151-14.1426,6.79689,2.9258a99.3034,99.3034,0,0,1,60.0957,89.4424c.0156.7666.0215,1.5381.0176,2.3056l-.0293,7.4317-3.0547-.0381q-.3105,3.81735-.9238,7.5967l2.9629.7422-1.7051,7.0966a99.52,99.52,0,0,1-5.041,15.3653l-2.9043,6.8632-2.8496-1.2412a95.48257,95.48257,0,0,1-34.0176,37.1963l1.4668,2.7989-6.4551,3.4414a99.673,99.673,0,0,1-29.0781,10.1005l-7.2891,1.3243-.543-3.0713c-2.7109.2851-5.4375.456-8.15819.5117l-.18551,3.0977Z" transform="translate(0.48489 0.39075)"/><path class="cls-6" d="M82.8159,206.594a87.87956,87.87956,0,0,1-37.24219-60.9101l-.8496-6.4649,2.7344-.3574a86.0765,86.0765,0,0,1,.373-14.0293l-2.6855-.5098,1.2207-6.4062a88.133,88.133,0,0,1,10.4218-27.9287l.0274-.0459A87.98339,87.98339,0,0,1,84.394,60.81964l5.4531-3.5742,1.44141,2.1933a85.72455,85.72455,0,0,1,29.51959-9.9629l-.1621-2.5566,6.5058-.4082a88.01579,88.01579,0,0,1,10.8848-.0117l6.4805.4043-.1485,2.5605a86.41729,86.41729,0,0,1,23.41991,6.7774l5.95509,2.6679-5.9433,13.1934-5.9375-2.666a71.36044,71.36044,0,0,0-16.6016-5.1289,71.02925,71.02925,0,1,0,57.3418,82.3984,71.251,71.251,0,0,0,.6152-21.0058l-.7734-6.4688,3.0176-.3613a74.87859,74.87859,0,0,0-12.1895-27.71l-3.7656-5.289,11.0449-7.9209,3.793,5.332a87.80592,87.80592,0,0,1,4.3359,95.1836c-.3418.5859-.6914,1.1719-1.0468,1.751l-3.4336,5.6015-2.2911-1.4326q-1.98914,2.74215-4.1875,5.3174l1.8985,1.9199-4.5488,4.5801a87.76132,87.76132,0,0,1-10.86529,9.2949l-5.34571,3.8525-1.582-2.2451a84.45193,84.45193,0,0,1-42.7871,12.4844l-.1778,2.7871-6.457-.3633a88.18394,88.18394,0,0,1-26.6113-5.7207l-6.1153-2.3476,1-2.5694q-3.2694-1.5453-6.4003-3.3603l-1.56249,2.2549Z" transform="translate(0.48489 0.39075)"/><path class="cls-7" d="M44.94871,168.45834l2.625-.9844a91.84292,91.84292,0,0,0,12.5938,22.0146l-2.2266,1.7872,1.0644,1.3261a93.72853,93.72853,0,0,0,67.66609,34.8828l1.6933.0948.1699-2.835a90.86962,90.86962,0,0,0,18.13291-1.1406l.498,2.8174,1.68159-.3057a94.00326,94.00326,0,0,0,27.4258-9.5264l1.4903-.7939-1.34569-2.5703a90.511,90.511,0,0,0,38.78119-42.4512l2.6094,1.1367.6699-1.584a93.70448,93.70448,0,0,0,4.75-14.4824l.39451-1.6377-2.71681-.6806a89.63063,89.63063,0,0,0,2.125-17.5284l2.7852.0342.0078-1.7148c.002-.7246-.0039-1.4522-.0176-2.1739a93.63743,93.63743,0,0,0-56.6699-84.3447l-1.5684-.6758-1.5781,3.709,1.5547.668a90.2679,90.2679,0,0,1,34.0352,25.5889l-2.9629,2.3232,1.04881,1.3369a86.26264,86.26264,0,0,1,18.34959,51.4854,85.96814,85.96814,0,0,1-171.90619,3.2148,86.0289,86.0289,0,0,1,54.97849-81.7812,86.4273,86.4273,0,0,1,20.4004-5.1309l1.6855-.2109-.6152-4.9844-1.6914.2129a91.80489,91.80489,0,0,0-29.8028,8.9883l-1.2343-2.3262-1.5.789a93.51558,93.51558,0,0,0-9.9102,6.0391l-1.39649.9727,1.5,2.1504a90.54488,90.54488,0,0,0-27.95309,33.2353l-2.459-1.1709-.7305,1.5361a93.78762,93.78762,0,0,0-9,41.8565v.0039a94.041,94.041,0,0,0,5.9727,31.2373Z" transform="translate(0.48489 0.39075)"/><path class="cls-3" d="M161.3706,233.72784l1.3086,4.1357,1.623-.5146a106.07723,106.07723,0,0,0,55.1934-40.5225,108.656,108.656,0,0,0,6.12691-9.83l.82819-1.4961-8.07619-4.4063-.81841,1.4795a99.43278,99.43278,0,0,1-5.59759,8.9639,97.381,97.381,0,0,1-44.54691,34.9599l-1.5879.6172,1.7695,4.5362c-1.3769.5019-2.875,1.0107-4.6054,1.5615Z" transform="translate(0.48489 0.39075)"/><path class="cls-3" d="M225.2007,119.428a96.20814,96.20814,0,0,1,1.4257,17.8984l-.0234,1.6973,9.5664.1475.0234-1.7022a105.23513,105.23513,0,0,0-4.0117-30.3223l-.4648-1.6376-9.2012,2.622.4649,1.6348A96.581,96.581,0,0,1,225.2007,119.428Z" transform="translate(0.48489 0.39075)"/><path class="cls-3" d="M106.31,34.011l-1.6523.4043,2.2812,9.293,1.6485-.4024c2.1367-.5215,4.24611-.9648,6.2695-1.3203,2.8731-.5019,5.8301-.8789,8.7852-1.1211l1.6933-.1387-.7695-9.53709-1.6953.1368A106.15846,106.15846,0,0,0,106.31,34.011Z" transform="translate(0.48489 0.39075)"/><path class="cls-7" d="M38.23971,115.07164l.4004-1.6534A95.46691,95.46691,0,0,1,102.103,45.13994l1.6211-.5195-2.93159-9.1035-1.61721.5175a105.06472,105.06472,0,0,0-67.39069,66.6241A105.36757,105.36757,0,0,1,129.0053,30.14l1.6973-.0469-.0547-2.0742c.4258-.0039.85161-.0078,1.2774-.0078a106.74637,106.74637,0,0,1,32.9824,5.19919l1.6035.5215,1.418-4.24609-1.6328-.5293A111.87208,111.87208,0,0,0,19.98,134.25224l-.0137,1.6983.1445.0009c.0098,1.6123.0527,3.209.1289,4.7676l.0821,1.6973,6.5292-.3164-.0839-1.6992a105.291,105.291,0,0,1,2.2519-27.5635Z" transform="translate(0.48489 0.39075)"/><path class="cls-3" d="M42.17531,136.02764a89.72715,89.72715,0,0,1,3.1465-24.332l.4433-1.6367-3.8789-1.0684-.4492,1.6455a93.6653,93.6653,0,0,0-3.291,25.4248l.0156,1.6953,4.0273-.0215Z" transform="translate(0.48489 0.39075)"/><path class="cls-7" d="M237.5854,116.85484a107.28531,107.28531,0,0,1-5.3847,56.7119l-.6075,1.5937,4.1797,1.5781.6035-1.5839a112.566,112.566,0,0,0,2.95711-70.5918l-.46881-1.6377-4.3027,1.2304.4707,1.6377A108.46054,108.46054,0,0,1,237.5854,116.85484Z" transform="translate(0.48489 0.39075)"/><path class="cls-3" d="M170.3862,235.60384a108.19785,108.19785,0,0,1-20.0312,5.5429c-1.85749.3243-3.7891.6075-5.7422.8399l-1.6895.2021.5274,4.4395,1.6914-.2041a112.40238,112.40238,0,0,0,26.85741-6.6484l1.60149-.6153-1.6406-4.1601Z" transform="translate(0.48489 0.39075)"/><path class="cls-3" d="M209.3178,216.24054a111.18615,111.18615,0,0,1-8.7304,7.5469l-1.3496,1.0468,3.8222,4.8809,1.3379-1.0391a119.68773,119.68773,0,0,0,9.22661-7.9511l1.23629-1.1817-4.32029-4.4756Z" transform="translate(0.48489 0.39075)"/><path class="cls-3" d="M240.6909,161.88894l-.4277,1.6504a111.23038,111.23038,0,0,1-16.7168,36.1289,112.54972,112.54972,0,0,1-11.0528,13.4082L211.31,214.305l4.4922,4.3027,1.1758-1.2129.2637-.2637,17.289-23.1738.05081-.0898a117.23916,117.23916,0,0,0,11.69919-28.7637l.42581-1.6426Z" transform="translate(0.48489 0.39075)"/><path class="cls-8" d="M203.0522,100.65754a79.05786,79.05786,0,0,0-6.9023-11.7861l-1.0371-1.4639-3.293,2.3389a74.33689,74.33689,0,0,0-28.4258-23.1846,75.87814,75.87814,0,0,0-9.52149-3.6563l1.10349-3.9023-1.72649-.4863a78.84418,78.84418,0,0,0-100.2852,76.3945,78.17394,78.17394,0,0,0,7.5645,33.2119l.0019.0029a78.838,78.838,0,0,0,150.08209-34.2773A78.08432,78.08432,0,0,0,203.0522,100.65754Zm-9.9668-1.6748a71.497,71.497,0,0,1,4.1778,8.5303l-2.0821.791q-.6708-1.629-1.4238-3.2188c-.7949-1.6767-1.6855-3.3086-2.6172-4.917Zm-88.5136-30.1885,1.6523-.6875-1.3594-3.2812a73.72379,73.72379,0,0,1,12.4531-3.6016l.6563,3.7187,1.6738-.2929c1.3848-.2442,2.8399-.4492,4.3418-.6153l.2891,3.3477,1.6972-.1484c1.9473-.1719,3.9258-.2598,5.877-.2598q1.78127,0,3.5508.0937l-.1875,2.3379q-1.66995-.0879-3.3399-.0879a65.5952,65.5952,0,0,0-28.6308,6.6309l-1.5235.7441,1.7539,3.6133,1.5333-.748a62.00347,62.00347,0,0,1,5.9394-2.5274,60.9235,60.9235,0,0,1,32.2754-2.6289l1.6797.3203.4805-2.6035a63.5536,63.5536,0,0,1,13.3203,4.503,64.36289,64.36289,0,0,1,8.6074,4.8554l.9668.6485,1.1211.8173a62.58429,62.58429,0,0,1,5.0937,4.1348l1.2676,1.1465.3438-.3838c.2832.2686.58.5283.8574.8008a64.14373,64.14373,0,0,1,17.07611,29.5439l.45509,1.7442,2.6973-.7178a66.6191,66.6191,0,0,1,1.39061,8.668l-3.47071.2763.1172,1.6797q.12015,1.7418.14651,3.4756l-2.47851-.0273-.0157,1.7031q-.01755,1.9995-.1679,3.9834l-5.4688-.5693-.1758,1.6914a55.49592,55.49592,0,0,1-4.7519,17.3906l-1.0352-.502-.748,1.5118c-.69919,1.4121-1.4766,2.8144-2.377,4.289l-.8847,1.4492,6.7539,4.1426.88861-1.4541a63.38374,63.38374,0,0,0,3.35359-6.2432q.4482-.96375.8652-1.9404l2.6191,1.0332.62311-1.583q.28124-.7149.54489-1.4326l2.1699.7119q-.9756,2.6601-2.1816,5.2598l-1.2598-.6114-.748,1.5137a65.56,65.56,0,0,1-29.8555,29.836l-.6406-1.3916-1.6289.7529q-1.91025.8862-3.8692,1.6406l-1.9277-5.4658-1.68949.5967a58.44245,58.44245,0,0,1-18.705,3.3291l.01169-1.2129-1.7774-.0303c-1.6601-.0264-3.3476-.1338-5.1582-.3252l-1.7793-.1894-.8945,8.3037,1.7871.1884a66.54655,66.54655,0,0,0,7.459.3741q1.11915-.00735,2.2363-.0528l.0196.2891c-.9082.0371-1.8184.0596-2.7305.0596a66.04844,66.04844,0,0,1-56.24609-31.5879l-.8789-1.4424-1.1973.7187a67.50877,67.50877,0,0,1-8.9375-36.9921l.0821-1.6973-2.0977-.1045a69.0846,69.0846,0,0,1,11.1524-32.9111l.9765-1.4893-1.0332-.6865a70.65668,70.65668,0,0,1,4.94139-6.3692l1.1192-1.2812-.1368-.1201c.5743-.624,1.1504-1.2451,1.74611-1.8477A70.70261,70.70261,0,0,1,104.5718,68.79424Z" transform="translate(0.48489 0.39075)"/><path class="cls-3" d="M167.08151,172.02764a51.043,51.043,0,0,1-4.80271,4.0762l-1.3711,1.0234,2.2656,3.002,1.3555-1.0117a54.96278,54.96278,0,0,0,5.1582-4.377l1.2246-1.1787-2.6035-2.7119Z" transform="translate(0.48489 0.39075)"/><path class="cls-2" d="M81.2612,141.41334l-3.72269.5196.2618,1.7051q.331,2.15625.82809,4.2597l-5.002,1.3115q-.21375-.89355-.3984-1.79l-.3437-1.6631-1.1524.2364a60.61,60.61,0,0,1-.3711-18.9708l.2324-1.6738-3.9746-.5742-.2343,1.6934a65.09316,65.09316,0,0,0,64.40029,73.9765h.002a65.18761,65.18761,0,0,0,10.7832-.9023l1.6641-.3682-.002-.0176c.7149-.1357,1.377-.2744,2.0137-.4209l1.6562-.3789-1.1562-5.0732-1.6582.3799a59.96481,59.96481,0,0,1-13.336,1.5078c-.5254,0-1.0468-.0059-1.5703-.0195l.3203-5.169q.63.0147,1.2598.0147a54.79512,54.79512,0,0,0,10.0176-.9258l1.664-.3106-.6738-3.7011-1.6797.3134a51.054,51.054,0,0,1-9.3164.8614c-1.52339,0-3.06439-.0694-4.582-.2071l-1.6973-.1533-.3047,3.416q-2.59859-.3369-5.1523-.9277l.834-3.2832-1.6446-.4219a51.16885,51.16885,0,0,1-8.9199-3.1807,50.537,50.537,0,0,1-26.3125-28.7021,51.13725,51.13725,0,0,1-2.4785-9.7021Zm1.6641,18.3721-4.5684,2.4199c-.125-.25-.25-.5029-.3711-.7558l4.7266-2.0918C82.7827,159.50034,82.853,159.64284,82.9253,159.78544Z" transform="translate(0.48489 0.39075)"/><path class="cls-3" d="M78.7593,122.23664a54.62687,54.62687,0,0,0-1.42189,8.7705l-.1328,1.6738,3.74609.3467.1367-1.7168a50.78164,50.78164,0,0,1,1.3222-8.1641l.4063-1.6337-3.6445-.9444Z" transform="translate(0.48489 0.39075)"/><path class="cls-3" d="M194.0698,116.45144a65.35717,65.35717,0,0,0-6.541-14.7011l-.8848-1.4688-2.3847,1.4649a61.68507,61.68507,0,0,0-26.1465-22.8555,62.55585,62.55585,0,0,0-6.2559-2.5078l-1.6172-.5498-2.1426,6.3847,1.6016.5459a56.59057,56.59057,0,0,1,5.5664,2.2364,55.31936,55.31936,0,0,1,23.9707,21.4336l.8848,1.4531,2.373-1.4473c.3047.5449.6231,1.1319.96491,1.7832l.791,1.5039,2.375-1.2461a61.46651,61.46651,0,0,1,2.56049,6.0098c.35751.9805.6993,2.0039,1.043,3.1309l.4941,1.625,3.8438-1.1651Z" transform="translate(0.48489 0.39075)"/></svg>