<svg id="Warstwa_1" data-name="Warstwa 1" xmlns="http://www.w3.org/2000/svg" viewBox="0 0 1325.56951 398.16737"><defs><style>.cls-1{fill:none;}.cls-2,.cls-3,.cls-4,.cls-5,.cls-6,.cls-7,.cls-8{fill:#18a3e8;}.cls-10,.cls-11,.cls-12,.cls-13,.cls-14,.cls-15,.cls-16,.cls-17,.cls-18,.cls-19,.cls-2,.cls-20,.cls-21,.cls-3,.cls-4,.cls-5,.cls-6,.cls-7,.cls-8,.cls-9{fill-rule:evenodd;}.cls-16,.cls-17,.cls-2,.cls-9{opacity:0.6;}.cls-11,.cls-13,.cls-14,.cls-15,.cls-16,.cls-17,.cls-19,.cls-2,.cls-20,.cls-21,.cls-4,.cls-5,.cls-6,.cls-7,.cls-8,.cls-9{isolation:isolate;}.cls-11,.cls-4{opacity:0.7;}.cls-5{opacity:0.9;}.cls-13,.cls-19,.cls-6{opacity:0.4;}.cls-14,.cls-20,.cls-7{opacity:0.5;}.cls-15,.cls-21,.cls-8{opacity:0.3;}.cls-10,.cls-13,.cls-14,.cls-15,.cls-9{fill:#e51a1a;}.cls-11,.cls-12,.cls-16{fill:#1298d5;}.cls-17,.cls-18,.cls-19,.cls-20,.cls-21{fill:#ffeb00;}</style></defs><title>index-bg-1</title><rect class="cls-1" x="0.00003" y="0.00004" width="1325.56946" height="394.20313"/><path class="cls-2" d="M476.41982,320.7566A187.11891,187.11891,0,0,1,376.30929,217.72584,189.87624,189.87624,0,0,1,426.09393,5.65105h-1.21256a190.72264,190.72264,0,0,0-49.3273,212.382C414.279,315.05171,523.57626,362.00761,619.66628,322.91313c96.106-39.10245,142.6081-149.45323,103.88526-246.47528a188.59552,188.59552,0,0,0-49.34571-70.7868h-1.217a189.828,189.828,0,0,1,48.42951,215.42268A187.072,187.072,0,0,1,619.366,322.15086a184.51339,184.51339,0,0,1-142.9462-1.39422ZM763.70882,5.65105a257.26349,257.26349,0,0,1,28.696,60.68971l6.023-2.05843a263.56858,263.56858,0,0,0-27.178-58.63128Zm-11.753,0h2.91443a250.822,250.822,0,0,1,34.30792,74.89017l-2.32867.65125A248.37152,248.37152,0,0,0,751.95577,5.65105Zm1.39685,18.10248a240.97087,240.97087,0,0,1,28.6969,74.04411,245.589,245.589,0,0,1,4.05561,27.00677l-17.66462,1.67266c-.61041-6.59174-1.49066-13.20794-2.71289-19.834l4.53-.88775c-.3211-1.74508-.65612-3.49073-1.02368-5.231A227.69919,227.69919,0,0,0,742.0978,30.56656l11.25482-6.813ZM488.641,18.10177A140.89712,140.89712,0,0,0,447.03823,48.487l-1.00446-.96565a142.39923,142.39923,0,0,1,42.00831-30.68991l.599,1.27031Zm12.61417,8.12651A128.8242,128.8242,0,0,0,464.7488,48.781l-4.95245-5.74986a136.71887,136.71887,0,0,1,53.38354-28.89453l2.71295,9.93263c-3.6347,1.01875-7.25717,2.18437-10.85049,3.54866l-.95792-2.5019c-.93664.35817-1.88372.72809-2.82922,1.11226Zm128.2471,209.50324.54334.61494a119.84652,119.84652,0,0,1-15.364,12.002l-.43335-.69639a118.16469,118.16469,0,0,0,15.254-11.92058ZM415.19241,217.33941l-12.91266-35.253c-.02353-.12-.04407-.23474-.06967-.35246l3.56558-.84534a150.71934,150.71934,0,0,0,6.88949,22.04681,148.36339,148.36339,0,0,0,27.93979,44.82318l-2.70044,2.48928a151.10359,151.10359,0,0,1-22.71213-32.9085ZM477.99319,13.18428l1.75949,3.23652a146.40818,146.40818,0,0,0-44.72644,37.22228l-2.8552-2.29775A150.0694,150.0694,0,0,1,477.99319,13.18428ZM702.55056,84.98657C736.6,170.29591,695.70547,267.33165,611.20748,301.7119a163.82893,163.82893,0,0,1-45.08154,11.26287l-.14368-1.43753a163.45591,163.45591,0,0,0,97.3866-45.71295l-5.32666-5.55189a157.62015,157.62015,0,0,0,34.9331-51.41831,159.468,159.468,0,0,0,9.23487-29.8188l-3.12525-.67708a154.817,154.817,0,0,0-7.93-88.73428A152.95319,152.95319,0,0,0,609.90975,5.65105h26.51148A165.39111,165.39111,0,0,1,702.55056,84.98657ZM462.64638,5.65105h18.84275a155.47816,155.47816,0,0,0-63.12857,56.58129l-6.44406-4.17175a166.88392,166.88392,0,0,0-22.50245,55.714l7.49228,1.56708a158.27358,158.27358,0,0,0,56.43808,155.73912l-4.70578,6.05548c3.7009,2.92517,7.50925,5.7049,11.4343,8.28638l-.78647,1.21445a165.43789,165.43789,0,0,1-62.735-77.14432c-30.45661-76.32134-.94391-162.00357,66.095-203.84178ZM623.71389,313.28621l-.33386-.75168a178.7897,178.7897,0,0,0,43.69006-28.11759l.52887.61905A179.49822,179.49822,0,0,1,623.71389,313.28621ZM682.11861,93.1899a145.30362,145.30362,0,0,1-42.48974,166.05132l-.87073-1.09054a141.98816,141.98816,0,0,0,31.52612-36.42391l-2.31323-1.42561a142.374,142.374,0,0,0,9.28119-18.20193,140.919,140.919,0,0,0,1.01959-107.23568,139.10529,139.10529,0,0,0-58.86133-68.69942l2.045-3.54657c2.3833,1.39423,4.70923,2.88672,7.00842,4.42185l.108-.16882a143.42485,143.42485,0,0,1,53.54669,66.31934ZM700.75686,5.65105h1.891a208.55271,208.55271,0,0,1,41.32831,68.17749l-1.3244.49521A207.30419,207.30419,0,0,0,700.75686,5.65105ZM376.63265,33.3634a209.86168,209.86168,0,0,0-25.48446,56.216l-1.35962-.40985a211.70284,211.70284,0,0,1,27.21029-58.85739l1.16532.80092c-.50379.75344-1.03659,1.48814-1.53153,2.25028Zm33.00409,83.91743a146.10135,146.10135,0,0,1,11.56165-33.74345l1.243.61641c-1.12082,2.31481-2.19281,4.65264-3.18866,7.0229a144.68659,144.68659,0,0,0-8.25415,26.38378ZM365.19006,5.65105h17.73657a220.7067,220.7067,0,0,0-26.55484,40.56223L343.99432,39.799A237.334,237.334,0,0,1,365.19006,5.65105Zm-20.89032,0h2.91107q-1.93341,2.81981-3.79218,5.691a251.51725,251.51725,0,0,0-13.04321,22.73661c-.71237-.37161-1.43622-.745-2.15079-1.11243A252.92545,252.92545,0,0,1,344.29971,5.65105ZM701.16531,288.17888l1.03833.96765a207.94806,207.94806,0,0,1-43.789,36.5253l-.74035-1.213a206.69836,206.69836,0,0,0,43.491-36.28ZM359.45293,228.46133A207.21607,207.21607,0,0,0,375.017,258.45381l-1.19464.74676a209.26027,209.26027,0,0,1-15.67868-30.197l1.30926-.54221ZM444.08761,339.954l-6.80661,12.2554a234.87028,234.87028,0,0,1-30.93192-20.94781l8.6572-11.00217q7.97433,6.376,16.49737,12.00836,6.163,4.05043,12.584,7.68622Zm147.74066,11.0535a204.73767,204.73767,0,0,0,36.665-11.47821l.54968,1.31955a206.49349,206.49349,0,0,1-36.92072,11.56338c-70.53881,14.97193-140.19506-8.14312-188.0975-55.49212l.98575-.9968a207.5281,207.5281,0,0,0,31.64224,25.68537A203.98193,203.98193,0,0,0,591.82827,351.00749Zm124.32648-133.901-.74671-.30731A183.99343,183.99343,0,0,0,723.16921,193.65l.78461.21534A184.81526,184.81526,0,0,1,716.15475,217.10653ZM457.85021,347.117a217.48435,217.48435,0,0,0,213.58267-15.193l7.64869,11.747a231.26389,231.26389,0,0,1-227.15442,16.14847l5.923-12.70251ZM727.9147,168.725a182.147,182.147,0,0,0-11.76856-89.27041c-.15228-.37523-.30859-.74089-.45685-1.11427l.75055-.30548c.1521.37137.3086.73864.45929,1.11428a182.87227,182.87227,0,0,1,11.81677,89.67617l-.80114-.10034ZM600.689,392.75145c-109.41767,23.217-217.14313-30.08817-268.61112-123.94718l2.12754-1.16748a247.16012,247.16012,0,0,0,52.15316,65.5575l3.12317-3.56363a242.9266,242.9266,0,0,0,28.04312,21.56866,239.69656,239.69656,0,0,0,315.8816-46.44748l5.39465,4.61594q-4.64721,5.53821-9.60748,10.79166l.21978.20666A246.80681,246.80681,0,0,1,600.689,392.75145ZM613.36,46.262l.43854-.69181a119.78167,119.78167,0,0,1,24.8919,21.362l-.60663.55315A118.897,118.897,0,0,0,613.36,46.262ZM754.41427,180.88019a209.45192,209.45192,0,0,1-5.70386,25.31423l-1.351-.39735a209.7811,209.7811,0,0,0,5.66272-25.14542ZM404.87084,5.65105h5.12189A201.19743,201.19743,0,0,0,366.0996,221.87916,197.83669,197.83669,0,0,0,528.76327,345.8535l-.385,3.67242a201.626,201.626,0,0,1-165.66843-126.266A204.87632,204.87632,0,0,1,404.87084,5.65105Zm284.23471,0h5.1283a204.89562,204.89562,0,0,1,15.98657,264.30447l-2.91168-2.22693A201.19281,201.19281,0,0,0,689.10555,5.65105ZM479.17931,251.81572a124.95045,124.95045,0,0,0,33.15656,15.93478l-2.34909,7.7225a133.91657,133.91657,0,0,1-35.2731-16.94459ZM562.59444,27.32723l-.08679.816a117.05927,117.05927,0,0,0-14.67352-.71128l-.01294-.81935a117.729,117.729,0,0,1,14.77319.71466ZM537.18844,266.377l-.0954.82031a118.96694,118.96694,0,0,1-35.74683-9.64044l.3299-.74089c.47174.20938.93848.44209,1.41205.64439A118.209,118.209,0,0,0,537.18844,266.377ZM650.1567,82.20463a121.39536,121.39536,0,0,1-1.9986,133.0766l-.65759-.46946a120.59717,120.59717,0,0,0,1.9707-132.16463ZM382.96026,215.01841a182.64963,182.64963,0,0,0,8.44119,18.15535l-.71841.38875A183.36352,183.36352,0,0,1,435.95574,5.65105h7.84592a176.24176,176.24176,0,0,0-47.0921,54.3142l-3.49927-1.992a181.79789,181.79789,0,0,0-15.94306,37.99433l3.861,1.15121a178.81058,178.81058,0,0,0-7.18549,52.74849l-4.01779.062a182.34672,182.34672,0,0,0,13.03534,65.08911Zm48.30395-58.037a120.81682,120.81682,0,0,0,8.239,35.0333,119.11352,119.11352,0,0,0,37.95294,50.35923l-.49048.65125a119.82072,119.82072,0,0,1-38.213-50.70549A121.48869,121.48869,0,0,1,430.482,157.043Zm228.87992,49.67143q2.77551-5.197,5.07537-10.64382c1.10816-2.61907,2.11512-5.27718,3.04523-7.9677l7.55762,2.6561a136.19639,136.19639,0,0,1-8.63171,19.79727l-7.04651-3.84183ZM646.70345,53.31028a136.21774,136.21774,0,0,1,31.915,128.255l-7.71826-2.11163A128.15146,128.15146,0,0,0,640.888,58.861l5.81543-5.55069Zm-157.881-9.95452.417.70283a119.15031,119.15031,0,0,0-48.86456,56.26714,120.8518,120.8518,0,0,0-6.16687,18.92343l-.80106-.19618A120.51162,120.51162,0,0,1,488.82247,43.35576Zm-75.385,222.22952a179.55318,179.55318,0,0,0,19.98206,20.0162l-.5246.6301a179.99516,179.99516,0,0,1-20.07761-20.11319Zm80.649,13.07983a140.24155,140.24155,0,0,0,14.06219,5.17319c-.13693.45047-.26819.90079-.403,1.34256A143.07488,143.07488,0,0,1,434.11291,232.377l1.11264-.8257a141.58185,141.58185,0,0,0,58.8609,47.11375Zm-93.1196-102.91339a155.8468,155.8468,0,0,1-2.102-15.58713l3.61389-.32229a145.83115,145.83115,0,0,0,2.08753,15.20868Zm28.02023,36.61955a138.86207,138.86207,0,0,1-11.29889-101.688l1.171.32687c-.75891,2.80939-1.4696,5.62989-2.05548,8.489l6.20688,1.29583a131.45017,131.45017,0,0,0,12.60175,87.9638Z" transform="translate(0.00003 0.00003)"/><path class="cls-3" d="M648.47237,36.87118a144.26067,144.26067,0,0,0-11.31848-9.31148l-2.01953,2.80183a135.313,135.313,0,0,1,11.06641,9.07014Z" transform="translate(0.00003 0.00003)"/><path class="cls-3" d="M687.44924,188.62417a143.08663,143.08663,0,0,0,7.1864-55.7312l-3.41168.271a139.529,139.529,0,0,1-7.033,54.38008Z" transform="translate(0.00003 0.00003)"/><path class="cls-3" d="M573.94442,254.188l-.13507-.75594a110.09111,110.09111,0,0,1-30.38025,1.44373l-.06531.773A111.03513,111.03513,0,0,0,573.94442,254.188Z" transform="translate(0.00003 0.00003)"/><path class="cls-3" d="M660.9125,174.963A113.97306,113.97306,0,0,0,650.876,87.3347l-.67273.38868a112.78158,112.78158,0,0,1,9.97717,87.02584Z" transform="translate(0.00003 0.00003)"/><path class="cls-3" d="M628.30733,59.9844l.49524-.54881a111.75414,111.75414,0,0,0-28.0202-18.81006,110.37806,110.37806,0,0,0-58.29443-10.02291l.07428.76487a109.64008,109.64008,0,0,1,57.89917,9.95838A111.01164,111.01164,0,0,1,628.30733,59.9844Z" transform="translate(0.00003 0.00003)"/><path class="cls-4" d="M449.998,199.41945l-6.62067,3.54135A125.44323,125.44323,0,0,0,546.51162,270.152l.4613-7.56076a116.76989,116.76989,0,0,1-42.5419-10.95726A117.95873,117.95873,0,0,1,449.998,199.41945Z" transform="translate(0.00003 0.00003)"/><path class="cls-3" d="M677.04122,192.13559l1.21369.48515a135.78643,135.78643,0,0,0,9.31048-48.15393l-1.29791-.0173A134.301,134.301,0,0,1,677.04122,192.13559Z" transform="translate(0.00003 0.00003)"/><path class="cls-3" d="M680.50216,104.14442l1.24371-.37958a136.56259,136.56259,0,0,0-13.47278-30.571l-1.10833.68746A135.55283,135.55283,0,0,1,678.23544,97.276C679.056,99.54586,679.80489,101.834,680.50216,104.14442Z" transform="translate(0.00003 0.00003)"/><path class="cls-3" d="M662.01907,197.31041l-2.23957-1.09722c-1.5921,3.26284-3.33691,6.397-5.1784,9.44152l8.15429,5.0496a132.45734,132.45734,0,0,0,6.9-12.97329,130.238,130.238,0,0,0,11.3352-41.29754l-7.03393-.74089A123.02012,123.02012,0,0,1,663.254,194.723C662.85476,195.59211,662.44,196.45685,662.01907,197.31041Z" transform="translate(0.00003 0.00003)"/><path class="cls-3" d="M582.4034,271.10228a128.34547,128.34547,0,0,1-83.83966-9.00836A130.43745,130.43745,0,0,1,431.301,188.01971a134.61279,134.61279,0,0,1-5.18384-18.45807l-2.487.51871a134.64222,134.64222,0,0,1-1.499-45.301l-1.28748-.18774c-7.86487,57.27466,21.52124,115.42921,76.14472,141.13413a132.21934,132.21934,0,0,0,78.69039,10.80814l-.02758-.18573c2.54846-.43341,5.0838-.914,7.598-1.49683Z" transform="translate(0.00003 0.00003)"/><path class="cls-3" d="M674.77364,25.18212l-2.71344,2.639a166.19881,166.19881,0,0,1,28.51093,40.7558l3.37079-1.70621a170.9951,170.9951,0,0,1,13.16375,36.31438l-3.66021.89508A167.19064,167.19064,0,0,1,668.4,262.0561l2.62884,2.7208a168.15886,168.15886,0,0,1-83.24,44.69037l.1521.7511a169.10779,169.10779,0,0,0,118.81378-95.02791C741.359,140.21652,717.39956,52.85246,653.84737,5.651h-1.29364A167.88892,167.88892,0,0,1,674.77364,25.18212Z" transform="translate(0.00003 0.00003)"/><path class="cls-3" d="M744.43117,111.85551l1.30469-.20939a198.70388,198.70388,0,0,0-18.67279-57.87259l-1.1886.59765a197.05584,197.05584,0,0,1,18.176,54.94967C744.20071,110.16208,744.29964,111.01177,744.43117,111.85551Z" transform="translate(0.00003 0.00003)"/><path class="cls-3" d="M671.76675,297.57017l.78033,1.0231a196.83424,196.83424,0,0,0,75.13757-140.40705l-1.31268-.1063A195.90669,195.90669,0,0,1,671.76675,297.57017Z" transform="translate(0.00003 0.00003)"/><path class="cls-3" d="M769.18429,225.94809l2.10632.80478a237.45537,237.45537,0,0,0,6.1582-148.4352c-.71954.20939-1.45312.42312-2.18035.63025a235.02512,235.02512,0,0,1-6.08411,147.00017Z" transform="translate(0.00003 0.00003)"/><path class="cls-3" d="M757.63168,147.32657l13.03985.20327a223.36465,223.36465,0,0,0-8.35181-63.69793l-12.53991,3.607a208.66437,208.66437,0,0,1,7.8518,59.88766Z" transform="translate(0.00003 0.00003)"/><path class="cls-3" d="M621.15011,357.37712a221.95264,221.95264,0,0,0,114.86224-85.14691,227.97835,227.97835,0,0,0,12.75208-20.65743l-10.76349-5.92915a216.25024,216.25024,0,0,1-12.03925,19.466,209.78012,209.78012,0,0,1-95.84979,75.94425l3.75616,9.72366c-4.3883,1.72311-8.83972,3.24957-13.31683,4.68893Z" transform="translate(0.00003 0.00003)"/><path class="cls-3" d="M395.15163,202.878a173.12355,173.12355,0,0,0,9.39164,20.95193l.6784-.35856a171.82744,171.82744,0,0,1-9.36358-20.8644Z" transform="translate(0.00003 0.00003)"/><path class="cls-3" d="M417.76934,243.60028l-.61523.44758a168.57165,168.57165,0,0,0,64.924,53.761c.34247.16174.681.31143,1.021.46512l.3219-.69592c-.3432-.1558-.681-.30323-1.02136-.46723A167.852,167.852,0,0,1,417.76934,243.60028Z" transform="translate(0.00003 0.00003)"/><path class="cls-3" d="M368.56078,11.85855q2.19328-3.154,4.47425-6.2075h-8.45819c-.56363.79022-1.13144,1.57529-1.6872,2.37461a235.656,235.656,0,0,0-34.86008,76.06882V127.572A228.62824,228.62824,0,0,1,368.56078,11.85855Z" transform="translate(0.00003 0.00003)"/><path class="cls-5" d="M414.39877,5.65105a197.0318,197.0318,0,0,0-38.02732,56.2298l1.20978.5484a196.01531,196.01531,0,0,1,38.68182-56.7782Z" transform="translate(0.00003 0.00003)"/><path class="cls-6" d="M382.76284,5.65105q-4.62451,5.78495-8.92242,11.95824a221.03021,221.03021,0,0,0-33.519,74.66316l12.67994,3.1027a208.92054,208.92054,0,0,1,46.884-89.7241Z" transform="translate(0.00003 0.00003)"/><path class="cls-3" d="M495.6173,347.35029a209.38261,209.38261,0,0,1-62.91687-30.3619c-1.3558-.9567-2.68783-1.93662-4.01788-2.92093l2.53982-3.53565c-5.03558-3.74936-9.82745-7.71267-14.42682-11.82263l-11.03634,12.5567a226.26627,226.26627,0,0,0,19.89487,15.86637A221.44308,221.44308,0,0,0,492.22549,359.287Z" transform="translate(0.00003 0.00003)"/><path class="cls-3" d="M379.78338,231.38112a195.20382,195.20382,0,0,0,12.13367,21.01832l1.1-.743a194.35969,194.35969,0,0,1-12.056-20.87525Z" transform="translate(0.00003 0.00003)"/><path class="cls-3" d="M365.88018,91.2442a198.20837,198.20837,0,0,0-6.83261,53.29954l1.326-.00668a197.10106,197.10106,0,0,1,6.7799-52.94024Z" transform="translate(0.00003 0.00003)"/><path class="cls-3" d="M473.75573,315.844c94.50418,44.46661,206.81253,3.16424,250.85825-92.2504A192.02014,192.02014,0,0,0,684.37154,5.65105h-4.99542A188.4873,188.4873,0,0,1,721.5035,222.1308a185.42629,185.42629,0,0,1-104.57074,96.79,183.13144,183.13144,0,0,1-141.72662-6.21747,185.90419,185.90419,0,0,1-95.86829-105.57422A189.47528,189.47528,0,0,1,369.12807,162.507l-3.40921.35674C372.43093,227.217,411.43279,286.52028,473.75573,315.844Z" transform="translate(0.00003 0.00003)"/><path class="cls-3" d="M510.93264,372.058a228.071,228.071,0,0,1-78.03726-30.45527l-1.1861,1.95118a230.32283,230.32283,0,0,0,78.8111,30.73513Z" transform="translate(0.00003 0.00003)"/><path class="cls-3" d="M786.35384,204.154a243.40632,243.40632,0,0,1-59.61615,107.37849l4.31177,4.17411c.1358-.141.27313-.27625.4082-.41242l36.27576-49.09512a247.76969,247.76969,0,0,0,24.3833-60.52249Z" transform="translate(0.00003 0.00003)"/><path class="cls-3" d="M435.68282,360.661a242.35685,242.35685,0,0,0,92.3028,29.37085l.57544-5.98025A236.50417,236.50417,0,0,1,438.50368,355.36Z" transform="translate(0.00003 0.00003)"/><path class="cls-3" d="M701.1744,334.75181l3.648,4.69925a248.18908,248.18908,0,0,0,19.23334-16.7352l-4.13849-4.32528A238.53751,238.53751,0,0,1,701.1744,334.75181Z" transform="translate(0.00003 0.00003)"/><path class="cls-3" d="M618.08474,326.97844a191.11861,191.11861,0,0,1-150.58209-9.228l-.59037,1.1962a192.90468,192.90468,0,0,0,151.62363,9.313Z" transform="translate(0.00003 0.00003)"/><path class="cls-3" d="M593.36141,372.52311q-6.14163,1.08564-12.33771,1.82346l.26416,2.26547a232.14691,232.14691,0,0,0,55.937-13.98327l-.83344-2.12619A230.39116,230.39116,0,0,1,593.36141,372.52311Z" transform="translate(0.00003 0.00003)"/><path class="cls-3" d="M439.50323,194.90072l6.85586-3.0664c-1.06592-2.43827-2.06155-4.91071-2.965-7.42212-1.24732-3.46474-2.33835-6.99442-3.26688-10.56175l-7.26163,1.92179A128.18363,128.18363,0,0,0,439.50323,194.90072Z" transform="translate(0.00003 0.00003)"/><path class="cls-3" d="M502.59808,36.5254A117.0517,117.0517,0,0,1,535.40133,26.012l-1.20374-7.47917a125.46491,125.46491,0,0,0-34.88421,11.18564Z" transform="translate(0.00003 0.00003)"/><path class="cls-3" d="M515.45138,37.59679c.45453-.16883.922-.31158,1.37427-.4722l-.24311-.72536a112.07266,112.07266,0,0,0-30.58087,16.50224l.44983.62163A111.16773,111.16773,0,0,1,515.45138,37.59679Z" transform="translate(0.00003 0.00003)"/><path class="cls-3" d="M442.86517,160.1999a112.74434,112.74434,0,0,0,63.3421,85.33081,111.097,111.097,0,0,0,19.62692,7.06716l.186-.74452a111.22077,111.22077,0,0,1-76.9924-70.35091,113.16984,113.16984,0,0,1-5.4136-21.40675Z" transform="translate(0.00003 0.00003)"/><path class="cls-3" d="M601.056,8.27628q-3.99645-1.44073-8.02777-2.62527H578.09646A136.908,136.908,0,0,1,611.91909,16.5093a138.4767,138.4767,0,0,1,18.68573,10.64133l1.90771-2.88639c-.09558-.06188-.18237-.12594-.27276-.19233Z" transform="translate(0.00003 0.00003)"/><path class="cls-3" d="M494.69659,21.62549c.19.39036.385.78314.573,1.18a134.07854,134.07854,0,0,1,12.908-5.54707,131.27544,131.27544,0,0,1,70.15821-5.76628l.23517-1.28586A132.91292,132.91292,0,0,0,494.69659,21.62549Z" transform="translate(0.00003 0.00003)"/><path class="cls-3" d="M488.1993,284.54216c77.38617,36.41955,169.355,2.59494,205.417-75.53433C728.412,133.61521,698.43893,44.52369,626.76791,5.65105H606.50277q4.37365,1.72416,8.69177,3.754a145.79827,145.79827,0,0,1,63.02283,56.89287l6.12207-3.76827a156.29838,156.29838,0,0,1,19.90375,52.68209l-7.05426,1.30226a148.04012,148.04012,0,0,1-11.29358,88.86251c-.48163,1.05-.983,2.09013-1.49066,3.12523l-2.69611-1.32341a143.057,143.057,0,0,1-79.24445,71.62732,141.35588,141.35588,0,0,1-109.39871-4.80182,142.83259,142.83259,0,0,1-61.665-55.62442L428.827,219.9378a148.91,148.91,0,0,1-21.24256-84.15828l-7.167-.359a156.06069,156.06069,0,0,1,37.70127-94.21274l-1.011-.8921a156.37293,156.37293,0,0,0-23.72092,36.835C377.32461,155.2818,410.82186,248.13637,488.1993,284.54216Z" transform="translate(0.00003 0.00003)"/><path class="cls-3" d="M663.6069,5.65105a177.88128,177.88128,0,0,1,48.54718,212.07568,175.13,175.13,0,0,1-98.74915,91.40771,172.95518,172.95518,0,0,1-133.84253-5.87161,175.52,175.52,0,0,1-90.52277-99.69777,177.74893,177.74893,0,0,1,5.807-135.13738A175.7626,175.7626,0,0,1,443.39724,5.65105h-1.21439a176.5542,176.5542,0,0,0-48.02557,62.45023c-41.01444,88.85776-2.91635,194.45723,85.08365,235.85955,88.00372,41.41067,192.59112,2.94867,233.60223-85.90674,34.68518-75.14357,12.78418-162.2634-48.03271-212.403Z" transform="translate(0.00003 0.00003)"/><path class="cls-3" d="M445.56655,116.12567l-.74057-.19208a113.66672,113.66672,0,0,0-2.91122,18.14006l.76129.07025A112.38317,112.38317,0,0,1,445.56655,116.12567Z" transform="translate(0.00003 0.00003)"/><path class="cls-3" d="M386.09817,125.08107a170.71709,170.71709,0,0,1,12.0939-47.4746l-.70169-.297a171.28728,171.28728,0,0,0-12.14276,47.69041Z" transform="translate(0.00003 0.00003)"/><path class="cls-3" d="M631.12893,224.5421l-.5246-.555a111.27711,111.27711,0,0,1-10.50006,8.99555l.45929.61246A111.74846,111.74846,0,0,0,631.12893,224.5421Z" transform="translate(0.00003 0.00003)"/><path class="cls-3" d="M607.62716,25.79941A126.72045,126.72045,0,0,0,594.757,20.594l-2.24158,6.749a121.04826,121.04826,0,0,1,64.37427,52.08483l5.07068-3.12362c1.40839,2.33534,2.71558,4.72515,3.96942,7.14151l1.01331-.53562A128.112,128.112,0,0,0,607.62716,25.79941Z" transform="translate(0.00003 0.00003)"/><path class="cls-3" d="M440.48617,200.3967l9.66006-5.16709c-.15207-.305-.30023-.60812-.45071-.9135l-9.994,4.46627C439.95727,199.323,440.22164,199.8631,440.48617,200.3967Z" transform="translate(0.00003 0.00003)"/><path class="cls-7" d="M494.69231,363.77888l5.37345-18.91739-3.45758-1.00161a205.62794,205.62794,0,0,1-61.84665-29.84714c-.35132-.24954-.707-.49957-1.05731-.75345l2.52468-3.51511-2.87219-2.13665c-4.69223-3.49323-9.46329-7.40015-14.17489-11.61737l-2.69144-2.40607-15.81247,17.9906,2.69659,2.4104a231.218,231.218,0,0,0,20.21454,16.12,224.85055,224.85055,0,0,0,67.64569,32.67173Z" transform="translate(0.00003 0.00003)"/><path class="cls-5" d="M513.44381,378.24714l1.68567-9.09155-3.53617-.66565a224.05473,224.05473,0,0,1-76.81481-29.97983l-3.06833-1.90652-4.94,8.14352,3.05567,1.89951q3.47658,2.1563,7.00635,4.18542l-5.998,11.27124,3.109,1.73591a245.03566,245.03566,0,0,0,93.6586,29.80441l3.61029.38827,1.27234-13.2073L528.945,380.442Q521.13149,379.59656,513.44381,378.24714Z" transform="translate(0.00003 0.00003)"/><path class="cls-3" d="M488.6206,56.42116A107.51482,107.51482,0,0,1,516.6849,41.0056c.2287-.08554,4.69678-1.62687,4.69678-1.62687l-1.941-5.77811a115.19825,115.19825,0,0,1,16.53924-4.00734l2.745-.44846.61926,6.19647,3.57819-.3634c3.54-.35649,7.13739-.53787,10.69226-.53787a105.69676,105.69676,0,0,1,45.32629,10.17605,107.35682,107.35682,0,0,1,26.94592,18.057l2.66046,2.43777,5.33973-5.91868-2.66687-2.446a115.48956,115.48956,0,0,0-28.91687-19.41283,113.4992,113.4992,0,0,0-48.67621-10.926,114.99108,114.99108,0,0,0-11.49726.581l-2.88464.29219-2.07312-12.91736-3.55218.58534a128.92781,128.92781,0,0,0-35.88056,11.50631l-3.2377,1.58852,5.602,11.59982a115.38266,115.38266,0,0,0-16.271,10.3576l-2.83352,2.16087,4.71368,6.47409Z" transform="translate(0.00003 0.00003)"/><path class="cls-3" d="M655.70815,177.22281l7.64051,2.23353,1.013-3.46353A118.25149,118.25149,0,0,0,654.00558,85.545l-1.77191-3.165-6.93458,3.97387,1.77192,3.15766A109.13735,109.13735,0,0,1,656.7311,173.719Z" transform="translate(0.00003 0.00003)"/><path class="cls-6" d="M623.12374,330.47551l-1.975-5.64517a193.5156,193.5156,0,0,0,47.0606-25.97162l3.68891,4.82992,2.846-2.22107a200.4725,200.4725,0,0,0,76.52728-143.007l.27331-3.60863-5.989-.48193a195.63722,195.63722,0,0,0-1.671-38.753l5.97833-.94577-.57953-3.60452a202.0177,202.0177,0,0,0-19.015-58.94011l-1.62042-3.21351-5.48737,2.76718A193.92258,193.92258,0,0,0,689.4598,5.65105H674.06557a184.896,184.896,0,0,1,44.17872,214.94662,181.58373,181.58373,0,0,1-164.8678,106.037,178.77147,178.77147,0,0,1-76.65192-17.22013A181.72837,181.72837,0,0,1,382.71447,205.886a186.05884,186.05884,0,0,1-10.01093-43.76129l-.37634-3.60426-10.561,1.10582.37634,3.6194a197.65829,197.65829,0,0,0,17.78494,63.98962l-4.96759,2.54087,1.60565,3.23707a201.1418,201.1418,0,0,0,12.36234,21.40468l1.99826,3.019,4.61-3.11092a192.0327,192.0327,0,0,0,69.12369,61.046l-2.57553,5.20056,3.2208,1.625a196.80451,196.80451,0,0,0,88.12841,20.9455h.00837a197.14366,197.14366,0,0,0,66.28784-11.46134l3.394-1.20623ZM409.46728,5.65105h11.86691a193.01391,193.01391,0,0,0-40.47638,58.27664l-1.48019,3.29422-7.77155-3.52324,1.49066-3.3194a201.15158,201.15158,0,0,1,18.27973-32.35581A199.09905,199.09905,0,0,1,409.46728,5.65105Z" transform="translate(0.00003 0.00003)"/><path class="cls-7" d="M541.98885,351.862a208.5556,208.5556,0,0,1-105.26049-35.81643,210.94866,210.94866,0,0,1-46.509-43.16614l-9.76776-12.2744,5.1474-4.16837a208.66137,208.66137,0,0,1-16.66641-29.41758l-6.12207,2.31642-5.46423-14.747a214.71628,214.71628,0,0,1-13.38617-70.703l-.00431-.13052a214.16924,214.16924,0,0,1,20.19376-94.67778l6.7038-14.21576,5.671,2.724a208.124,208.124,0,0,1,22.13876-31.9344h49.63815a172.513,172.513,0,0,0-52.6044,195.95522,169.62131,169.62131,0,0,0,89.64459,94.96433,167.114,167.114,0,0,0,129.89838,3.15152,169.41074,169.41074,0,0,0,94.0589-90.51672,172.79668,172.79668,0,0,0-21.7121-175.26447l-9.61993-12.37314,5.72473-4.53081Q678.128,11.08584,672.02608,5.65105h44.83985a213.9485,213.9485,0,0,1,47.41943,130.32548c.03363,1.636.04657,3.284.03839,4.92181l-.06353,15.86789-6.4585-.0807q-.65643,8.15055-1.95429,16.21826l6.266,1.58623-3.60578,15.151a214.19654,214.19654,0,0,1-10.65979,32.80862l-6.14374,14.65351-6.02453-2.64989a203.14574,203.14574,0,0,1-71.93848,79.419l3.102,5.97613-13.65033,7.347a209.4872,209.4872,0,0,1-61.49158,21.56665L576.28713,351.589l-1.14844-6.55688c-5.73346.60812-11.5.97375-17.25219,1.091l-.39331,6.61508Z" transform="translate(0.00003 0.00003)"/><path class="cls-6" d="M449.91558,295.17305a186.93427,186.93427,0,0,1-63.24676-75.87015,189.03111,189.03111,0,0,1-15.5094-54.18109l-1.79749-13.80353,5.78391-.76215a185.32846,185.32846,0,0,1,.78887-29.9561l-5.68011-1.08674,2.5816-13.67966a189.3255,189.3255,0,0,1,22.03971-59.6327l.057-.0956a187.66556,187.66556,0,0,1,31.4509-40.45428H487.0042a152.07224,152.07224,0,0,0-17.276,10.50245,149.69259,149.69259,0,0,0-44.00027,48.09809,152.98028,152.98028,0,0,0,6.52966,162.879,149.576,149.576,0,0,0,252.96094-10.2702,153.33618,153.33618,0,0,0,19.31311-94.40732l-1.63458-13.81018,6.38006-.773a160.6607,160.6607,0,0,0-25.7763-59.1639l-7.964-11.29283,23.35711-16.9124,8.02167,11.38448a188.8339,188.8339,0,0,1,9.16864,203.23069c-.723,1.25114-1.46124,2.50181-2.21448,3.73857L706.61086,250.815l-4.8454-3.05957q-4.20556,5.8551-8.85644,11.35279l4.01581,4.1-9.61933,9.77869a186.27808,186.27808,0,0,1-22.9765,19.846l-11.305,8.22638-3.3457-4.79364a177.33893,177.33893,0,0,1-90.4823,26.65521l-.37635,5.951-13.65484-.77573a184.94924,184.94924,0,0,1-56.27484-12.21454l-12.93412-5.01123,2.11511-5.48727c-4.60775-2.19919-9.13119-4.5968-13.53424-7.17371l-3.30322,4.8144-11.31784-7.85071ZM630.68819,5.65105h-6.27325L629.63265,8.017Z" transform="translate(0.00003 0.00003)"/><path class="cls-7" d="M369.837,213.74762l5.55142-2.10085a196.575,196.575,0,0,0,26.63239,47.00337l-4.70914,3.81511,2.252,2.8328A198.86431,198.86431,0,0,0,443.42306,306.003,196.598,196.598,0,0,0,542.65829,339.776l3.57977.20279.35992-6.053a190.32011,190.32011,0,0,0,38.346-2.43432l1.053,6.01507,3.55475-.654a197.53664,197.53664,0,0,0,57.99847-20.3385l3.15125-1.69528-2.84436-5.48776a192.57184,192.57184,0,0,0,82.01013-90.64066l5.51776,2.4278,1.41675-3.38242A201.41146,201.41146,0,0,0,746.847,186.81505l.835-3.49709-5.74573-1.45444a193.14867,193.14867,0,0,0,4.49408-37.42448l5.8891.07274.017-3.66181c.00433-1.54559-.00812-3.10011-.03748-4.6396A201.66039,201.66039,0,0,0,701.07021,5.65105h-11.601q6.1083,6.24822,11.59845,13.0091l-6.26611,4.96013,2.21789,2.855a184.79045,184.79045,0,0,1,23.24121,187.631,181.3763,181.3763,0,0,1-100.701,96.90754,178.99651,178.99651,0,0,1-139.07153-3.37372A181.61848,181.61848,0,0,1,384.511,205.967a185.007,185.007,0,0,1,45.42264-200.316H414.72539a194.94294,194.94294,0,0,0-33.00112,47.84236l-5.20032-2.5007-1.54373,3.282a201.84409,201.84409,0,0,0-19.03229,89.36776v.0087a202.46979,202.46979,0,0,0,12.62918,66.69546Z" transform="translate(0.00003 0.00003)"/><path class="cls-3" d="M616.03677,353.10719l2.76825,8.8302,3.43176-1.099a224.48962,224.48962,0,0,0,116.71771-86.52011,232.32067,232.32067,0,0,0,12.95721-20.991l1.75086-3.19371L736.5837,240.7265l-1.72925,3.15974a213.65359,213.65359,0,0,1-11.83862,19.13944,206.255,206.255,0,0,1-94.20422,74.644l-3.3581,1.317,3.74268,9.685c-2.91217,1.07187-6.07941,2.15894-9.74023,3.3335Z" transform="translate(0.00003 0.00003)"/><path class="cls-3" d="M751.01907,109.06149a207.43,207.43,0,0,1,3.01586,38.21446l-.05108,3.62577,20.231.31359.04925-3.63389a226.64146,226.64146,0,0,0-8.48431-64.74108l-.9812-3.49806L745.33932,84.941l.983,3.49073A207.70928,207.70928,0,0,1,751.01907,109.06149Z" transform="translate(0.00003 0.00003)"/><path class="cls-7" d="M355.64922,99.76007l.8461-3.52928a203.5319,203.5319,0,0,1,30.966-68.96287A206.612,206.612,0,0,1,404.7308,5.65105H378.15826q-3.74712,4.82039-7.26386,9.87333a224.54376,224.54376,0,0,0-28.895,57.73234,225.77658,225.77658,0,0,1,29.5065-59.31144q2.94123-4.23014,6.05-8.29418H360.15032l-.20578.29107a239.83013,239.83013,0,0,0-31.915,64.98449V157.6418l3.53577-.17317-.178-3.62778a226.94088,226.94088,0,0,1,4.76294-58.851Z" transform="translate(0.00003 0.00003)"/><path class="cls-3" d="M363.97207,144.504a193.39824,193.39824,0,0,1,6.6532-51.95231l.939-3.49523-8.20257-2.28061-.9498,3.513a201.68839,201.68839,0,0,0-6.95957,54.285l.03165,3.62141,8.51843-.04675Z" transform="translate(0.00003 0.00003)"/><path class="cls-7" d="M777.20937,103.56753A231.14363,231.14363,0,0,1,765.82186,224.655l-1.28412,3.40309,8.83948,3.36978,1.27563-3.38232A242.54565,242.54565,0,0,0,780.90591,77.322l-.99182-3.49685-9.098,2.628.99378,3.49733A233.39886,233.39886,0,0,1,777.20937,103.56753Z" transform="translate(0.00003 0.00003)"/><path class="cls-3" d="M635.102,357.112a227.12154,227.12154,0,0,1-42.3598,11.835c-3.92932.69181-8.01288,1.29606-12.14325,1.79361l-3.57361.43131,1.1167,9.47983,3.57593-.43753a235.71168,235.71168,0,0,0,56.7948-14.19452l3.38843-1.31281-3.4704-8.88418Z" transform="translate(0.00003 0.00003)"/><path class="cls-3" d="M717.43142,315.7689a235.99549,235.99549,0,0,1-18.462,16.114l-2.85431,2.23538L704.19729,344.54l2.82971-2.22067a253.43138,253.43138,0,0,0,19.51239-16.97647l2.61371-2.52194-9.1355-9.55652Z" transform="translate(0.00003 0.00003)"/><path class="cls-3" d="M783.77645,199.72122l-.90509,3.52309a239.8488,239.8488,0,0,1-58.72388,105.76788l-2.50323,2.62414,9.4989,9.18763,2.48724-2.58969.5578-.56409,36.56147-49.47928.108-.19272a251.66007,251.66007,0,0,0,24.7398-61.41257l.90076-3.50779Z" transform="translate(0.00003 0.00003)"/><path class="cls-8" d="M522.71212,5.65105a137.59688,137.59688,0,0,0-29.5936,10.57323l-3.22232,1.59058,3.70944,7.7168,3.24176-1.59718A130.41272,130.41272,0,0,1,509.409,18.53684a127.60248,127.60248,0,0,1,68.25229-5.61322l3.55291.68569,1.01691-5.56212a133.36847,133.36847,0,0,1,28.16773,9.61622A135.6666,135.6666,0,0,1,628.60036,28.032l2.04456,1.3832,2.37085,1.74476a132.90773,132.90773,0,0,1,10.77277,8.82834l2.679,2.4492.72791-.81984c.598.57207,1.22625,1.12732,1.81439,1.71016a137.38748,137.38748,0,0,1,36.11078,63.08041l.962,3.72384,5.704-1.53312a143.56744,143.56744,0,0,1,2.941,18.50732l-7.34027.589.24762,3.58722q.25415,3.71893.31067,7.42211l-5.24194-.05979-.032,3.63622q-.03827,4.26838-.35516,8.506l-11.56506-1.21719-.37256,3.61273A119.404,119.404,0,0,1,660.33,190.31305l-2.189-1.07025-1.58191,3.22654c-1.47808,3.01467-3.12341,6.00994-5.02679,9.15706l-1.87128,3.0961,14.2829,8.84412,1.87988-3.1048a135.67063,135.67063,0,0,0,7.09058-13.32977q.9483-2.05911,1.8316-4.144l5.538,2.20787,1.31787-3.38065q.59235-1.527,1.152-3.05932l4.58941,1.52032q-2.06552,5.67813-4.6145,11.231l-2.66479-1.3066-1.58191,3.23226a139.32269,139.32269,0,0,1-63.13489,63.70364l-1.355-2.97177-3.44513,1.60748q-4.03783,1.8924-8.18189,3.50369l-4.0772-11.6708-3.5719,1.27514a122.55623,122.55623,0,0,1-39.55542,7.108l.02325-2.59033-3.75781-.06341c-3.51068-.05841-7.0802-.28656-10.908-.69663l-3.76215-.40307-1.89209,17.72973,3.77857.40186a139.22167,139.22167,0,0,0,15.774.79843q2.36582-.01653,4.7284-.11362l.04174.619c-1.91967.07941-3.84411.12619-5.77307.12619a137.21769,137.21769,0,0,1-58.82879-13.21646,139.32971,139.32971,0,0,1-60.117-54.22769l-1.85711-3.07919-2.53354,1.535a145.19467,145.19467,0,0,1-18.89917-78.98491l.17328-3.62342-4.43671-.22178a148.45146,148.45146,0,0,1,23.58557-70.27194l2.06448-3.17939-2.18515-1.46464a150.64026,150.64026,0,0,1,10.44928-13.59847l2.36634-2.73752-.28717-.2559c1.21368-1.33194,2.43161-2.6581,3.69159-3.94353A149.71416,149.71416,0,0,1,485.78393,5.65105H454.33349A169.61887,169.61887,0,0,0,402.78466,213.0328l.00406.00588c27.66913,58.91077,87.262,96.69156,151.81366,96.25177,91.91217-.625,166.18713-76.63855,165.56726-169.43726a168.52317,168.52317,0,0,0-30.5849-96.0346l-2.193-3.12571L680.42782,45.687a157.57413,157.57413,0,0,0-42.8573-40.03591ZM683.105,65.40762A153.33556,153.33556,0,0,1,691.93856,83.622l-4.403,1.68866q-1.41787-3.478-3.00885-6.87258c-1.68176-3.58126-3.56549-7.0653-5.53668-10.499Z" transform="translate(0.00003 0.00003)"/><path class="cls-3" d="M628.114,221.36867a108.09267,108.09267,0,0,1-10.15711,8.70288l-2.89978,2.18638,4.79187,6.40955,2.86566-2.16088a116.40511,116.40511,0,0,0,10.90741-9.34544l2.59082-2.51712-5.50488-5.79089Z" transform="translate(0.00003 0.00003)"/><path class="cls-2" d="M450.14672,195.23056l-9.66006,5.16676c-.26413-.534-.52842-1.07435-.78379-1.61407l9.994-4.46675c.14777.305.29776.6081.44983.91406Zm-3.51855-39.22728-7.87351,1.10808.554,3.64056q.70148,4.60551,1.75134,9.0955L430.482,172.649q-.45036-1.90886-.84156-3.82211l-.72726-3.55027L426.477,165.78a130.64605,130.64605,0,0,1-.78457-40.50529l.49047-3.57418-8.40573-1.22589-.49527,3.61682c-8.34222,60.75571,23.0802,118.99524,78.188,144.92655a135.30023,135.30023,0,0,0,57.99988,13.02228h.00427a136.71975,136.71975,0,0,0,22.80548-1.92566l3.51874-.78565-.00427-.03879c1.51007-.2897,2.9115-.58462,4.2569-.89868l3.50427-.80929-2.447-10.83142-3.50635.81112a125.635,125.635,0,0,1-28.2016,3.22c-1.11041,0-2.21411-.01278-3.32019-.04241l.67664-11.0371q1.33172.03248,2.66473.03211a114.85774,114.85774,0,0,0,21.18494-1.97652l3.519-.66243-1.42511-7.90453-3.55292.67064a106.973,106.973,0,0,1-19.70081,1.83835c-3.22253,0-6.48175-.14694-9.68963-.44186l-3.59064-.32663-.64319,7.29368q-5.49609-.7206-10.89679-1.98207l1.7638-7.00874-3.47693-.90128a107.63136,107.63136,0,0,1-74.50748-68.07455,110.13058,110.13058,0,0,1-5.24026-20.7152Z" transform="translate(0.00003 0.00003)"/><path class="cls-3" d="M441.33746,115.05815a117.591,117.591,0,0,0-3.00754,18.72741l-.28128,3.57168,7.92181.74138.28964-3.6664a109.592,109.592,0,0,1,2.7956-17.43111l.861-3.489-7.70828-2.01554Z" transform="translate(0.00003 0.00003)"/><path class="cls-3" d="M685.186,102.70553a140.14979,140.14979,0,0,0-13.83216-31.38791l-1.8714-3.13674-5.04419,3.12829a131.4522,131.4522,0,0,0-68.52087-54.15406L592.49819,15.979l-4.5318,13.63475,3.38751,1.16377a119.44936,119.44936,0,0,1,11.77039,4.77608,117.36436,117.36436,0,0,1,50.69214,45.76228l1.8714,3.10269,5.01861-3.09c.645,1.16408,1.31739,2.41725,2.0401,3.80713l1.67322,3.21126,5.02252-2.65973a131.86128,131.86128,0,0,1,5.41352,12.83207c.75683,2.09214,1.478,4.27829,2.20575,6.6846l1.04449,3.47,8.12915-2.48751Z" transform="translate(0.00003 0.00003)"/><path class="cls-9" d="M1100.89016,394.20314A726.83277,726.83277,0,0,0,1136.6968,0h-3.12744a723.55674,723.55674,0,0,1-35.97962,394.20313ZM1261.53127,0c2.87244,18.2899,5.10157,36.55251,6.80213,54.764l57.236-5.41679V0ZM1000.58388,0A589.90671,589.90671,0,0,1,1003.86,252.59056l11.93353,2.58037a606.723,606.723,0,0,1-35.22742,113.7007q-5.39227,12.79737-11.36755,25.33154h38.13617A639.23381,639.23381,0,0,0,1048.60708,0Zm-54.5606,0h16.403a554.34214,554.34214,0,0,1-48.78015,394.20313h-17.832A538.431,538.431,0,0,0,946.02334,0Zm125.43609,394.20313h-3.32483a703.23769,703.23769,0,0,0,27.56018-83.30521l2.9917.82184A704.0097,704.0097,0,0,1,1071.45937,394.20314Zm42.329-178.34575A693.72335,693.72335,0,0,0,1105.69021,0h3.15747a696.5427,696.5427,0,0,1,7.99646,216.2381Zm101.05957,46.34737-5.3042-.8702a797.49969,797.49969,0,0,1-21.61157,95.87782l5.15369,1.517a801.7015,801.7015,0,0,0,21.7622-96.52456ZM1176.2626,0h14.15393a780.21293,780.21293,0,0,1-33.17676,394.20313H1142.458A766.2824,766.2824,0,0,0,1176.2626,0ZM866.25613,0A459.55118,459.55118,0,0,1,807.17,391.5865l2.5227,1.79135C885.51815,281.18245,910.9789,137.08355,869.50082,0ZM1.2313,278.34321q4.52646,13.80121,9.98135,27.483A461.90887,461.90887,0,0,0,58.074,394.20314h3.76427a458.65834,458.65834,0,0,1-47.76167-89.54022q-7.2429-18.15354-12.84532-36.532Zm854.15092,82.13565,26.881,14.64692a523.06339,523.06339,0,0,0,32.9165-75.48734l-28.82-10.12784c-3.54748,10.25742-7.38562,20.39557-11.62762,30.38291Q866.00006,340.61867,855.38222,360.47886ZM895.51961,0a486.673,486.673,0,0,1,.88813,256.76737l29.43042,8.05148A517.98533,517.98533,0,0,0,927.14126,0Z" transform="translate(0.00003 0.00003)"/><path class="cls-10" d="M959.494,291.73414A545.09265,545.09265,0,0,0,986.8959,79.22167l-13.00574,1.044a531.40351,531.40351,0,0,1-26.82037,207.34961Z" transform="translate(0.00003 0.00003)"/><path class="cls-10" d="M858.309,239.64335A433.07349,433.07349,0,0,0,859.217,0h-2.951a430.38572,430.38572,0,0,1-.74762,238.82946Z" transform="translate(0.00003 0.00003)"/><path class="cls-11" d="M54.10746,332.89576l-25.26122,13.505a485.874,485.874,0,0,0,28.65728,47.80237H92.70973A455.56016,455.56016,0,0,1,54.10746,332.89576Z" transform="translate(0.00003 0.00003)"/><path class="cls-10" d="M919.80892,305.12394l4.628,1.847a517.45141,517.45141,0,0,0,35.50354-183.61065l-4.95111-.06478A512.08119,512.08119,0,0,1,919.80892,305.12394Z" transform="translate(0.00003 0.00003)"/><path class="cls-10" d="M862.54531,324.8557l-8.54022-4.18439c-6.08588,12.4393-12.72333,24.40042-19.745,36.00122l31.07581,19.245a498.06362,498.06362,0,0,0,69.54639-206.9353l-26.83612-2.8146a468.61458,468.61458,0,0,1-40.8089,148.81976C865.71529,318.3022,864.134,321.59947,862.54531,324.8557Z" transform="translate(0.00003 0.00003)"/><path class="cls-12" d="M35.02657,394.20314A503.911,503.911,0,0,1,1.2313,333.76484v32.614Q8.90566,380.527,17.46144,394.20311Z" transform="translate(0.00003 0.00003)"/><path class="cls-10" d="M1065.1946,0a635.96362,635.96362,0,0,1-47.72522,385.67609q-1.97908,4.2865-4.01532,8.527h19.10273c.18188-.39212.368-.781.54919-1.17383A653.5216,653.5216,0,0,0,1082.75991,0Z" transform="translate(0.00003 0.00003)"/><path class="cls-10" d="M1139.22646,394.20314a750.78332,750.78332,0,0,0,49.94678-218.52852l-5.006-.40654a746.88907,746.88907,0,0,1-50.38269,218.93506Z" transform="translate(0.00003 0.00003)"/><path class="cls-10" d="M1294.15359,394.20314a898.55578,898.55578,0,0,0,31.41577-131.30423V191.66435a890.73173,890.73173,0,0,1-40.44824,202.53882ZM1325.56936,0h-4.94544q3.06995,23.034,4.94544,46.2212Z" transform="translate(0.00003 0.00003)"/><path class="cls-10" d="M1227.10232,134.26822l49.71838.774A849.50631,849.50631,0,0,0,1267.954,0h-50.25366A802.59611,802.59611,0,0,1,1227.10232,134.26822Z" transform="translate(0.00003 0.00003)"/><path class="cls-10" d="M1114.60513,394.20314A729.30337,729.30337,0,0,0,1159.03823,0h-13.23267a716.15151,716.15151,0,0,1-45.35168,394.20313Z" transform="translate(0.00003 0.00003)"/><path class="cls-12" d="M1325.56948,390.381q-.58154,1.912-1.17163,3.82221h1.17163Z" transform="translate(0.00003 0.00003)"/><path class="cls-12" d="M14.07492,315.66621l26.15657-11.68487q-6.11936-13.957-11.30462-28.30652c-4.77257-13.212-8.9328-26.67049-12.45694-40.27426L1.2313,239.43236v43.81442Q7.06828,299.67894,14.07492,315.66621Z" transform="translate(0.00003 0.00003)"/><path class="cls-12" d="M26.89421,183.35513a434.81931,434.81931,0,0,0,94.0228,210.848h3.74125a430.70786,430.70786,0,0,1-94.91761-211.247Z" transform="translate(0.00003 0.00003)"/><path class="cls-10" d="M970.88943,394.20314q6.30312-12.17266,12.1206-24.74466A597.5766,597.5766,0,0,0,1026.45522,0h-5.18933q1.198,5.89262,2.27912,11.81267L996.64626,16.779a564.582,564.582,0,0,1-43.076,338.82939c-1.83789,4.00711-3.74157,7.97253-5.668,11.91986l-10.29736-5.04751q-7.958,16.244-16.832,31.72244Z" transform="translate(0.00003 0.00003)"/><path class="cls-10" d="M1105.89,0a676.47787,676.47787,0,0,1-48.33484,394.20313h3.181A679.4309,679.4309,0,0,0,1108.82912,0Z" transform="translate(0.00003 0.00003)"/><path class="cls-12" d="M37.21038,15.297l-2.83967-.73156a433.25236,433.25236,0,0,0-11.08579,69.1684l2.88773.26708A428.47658,428.47658,0,0,1,37.21038,15.297Z" transform="translate(0.00003 0.00003)"/><path class="cls-12" d="M17.82225,336.62251l36.83443-19.70142c-.5646-1.16537-1.129-2.32165-1.7001-3.48364l-38.126,17.031C15.82192,332.526,16.81507,334.58693,17.82225,336.62251Z" transform="translate(0.00003 0.00003)"/><path class="cls-10" d="M838.46566,248.26069l29.13287,8.51587,3.86261-13.20416C894.6907,164.15576,894.90127,79.38591,873.32711,0H842.00619a413.84881,413.84881,0,0,1,.363,234.90122Z" transform="translate(0.00003 0.00003)"/><path class="cls-13" d="M1153.86684,394.20314a765.839,765.839,0,0,0,48.999-217.48361l1.02441-13.75773-22.82654-1.83279A747.91816,747.91816,0,0,0,1174.7,13.35763l22.79529-3.60588L1195.92849,0h-63.91028c22.756,132.54944,7.07031,268.581-46.47754,394.20313Z" transform="translate(0.00003 0.00003)"/><path class="cls-14" d="M1031.71108,394.20314q5.76232-11.8527,11.09534-23.99259A653.33678,653.33678,0,0,0,1098.258,93.50405a659.35524,659.35524,0,0,0-8.47266-93.504h155.86182a817.26049,817.26049,0,0,1,6.8396,90.98918c.11291,6.23525.16247,12.52225.1466,18.76684l-.24267,60.50472-24.62635-.30974q-2.50194,31.07919-7.45031,61.84849l23.87561,6.042-13.748,57.76969a822.40365,822.40365,0,0,1-30.12109,98.592Z" transform="translate(0.00003 0.00003)"/><path class="cls-13" d="M953.96615,394.20314A581.57629,581.57629,0,0,0,1019.67049,210.439a585.112,585.112,0,0,0,4.976-171.0144L1019.96828,0h136.7074a723.74773,723.74773,0,0,1-50.52942,394.20313Z" transform="translate(0.00003 0.00003)"/><path class="cls-14" d="M1151.18618,394.20314a768.98068,768.98068,0,0,0,34.80811-109.36582l3.1665-13.33548-21.89087-5.545a739.09662,739.09662,0,0,0,17.13452-142.70039l22.45691.2769.04785-13.96187c.03272-5.89446-.01538-11.82087-.12671-17.69159A770.92838,770.92838,0,0,0,1199.5104,0h-63.43628a705.96,705.96,0,0,1,7.8855,92.61322,699.35072,699.35072,0,0,1-59.35413,296.28532q-1.16619,2.65924-2.35412,5.3046Z" transform="translate(0.00003 0.00003)"/><path class="cls-10" d="M1203.80984,0a792.14519,792.14519,0,0,1,9.59143,134.07347l-.21021,13.82363,77.14173,1.19642.20373-13.85467A863.52826,863.52826,0,0,0,1281.82021,0Z" transform="translate(0.00003 0.00003)"/><path class="cls-14" d="M1306.774,0a881.78666,881.78666,0,0,1-36.09632,394.20313h37.83912q9.62879-30.67347,17.05273-61.97666V0Z" transform="translate(0.00003 0.00003)"/><path class="cls-10" d="M1325.56948,338.80568l-2.22864,8.67325q-6.045,23.58251-13.31262,46.72421h15.54126Z" transform="translate(0.00003 0.00003)"/><path class="cls-15" d="M978.91653,0a562.1011,562.1011,0,0,1,8.34716,57.16406l-27.98809,2.248L960.21975,73.09q.96588,14.17893,1.18426,28.298L941.399,101.1617l-.12152,13.86314q-.1464,16.27884-1.33881,32.43539l-44.11389-4.64169-1.4195,13.7755a454.74658,454.74658,0,0,1-38.30206,141.57678l-8.36053-4.08676-6.03192,12.30972c-5.62055,11.49738-11.894,22.9184-19.15137,34.91855l-7.15228,11.79721,54.4768,33.72809,7.15253-11.83615a517.92424,517.92424,0,0,0,27.053-50.82685q3.61451-7.85082,6.96771-15.80133L932.17361,316.79l5.025-12.88638q2.28141-5.82586,4.40863-11.666l17.48383,5.795q-7.87638,21.65244-17.59607,42.82293l-10.144-4.98233-6.03168,12.3259q-11.63571,23.74813-25.37311,46.00409h118.55243a642.82032,642.82032,0,0,0,65.77454-288.43492A653.10236,653.10236,0,0,0,1075.01662,0Z" transform="translate(0.00003 0.00003)"/><path class="cls-16" d="M54.65939,316.92109,17.82559,336.6255c-1.00893-2.03519-2.00025-4.0961-2.98982-6.15518L52.9584,313.43907c.56437,1.16376,1.1355,2.32,1.701,3.482ZM41.25759,167.35084l-30.03641,4.23523,2.12865,13.87859q2.67424,17.55061,6.67655,34.67448L1.2313,225.11665V394.20317H142.66581a414.51713,414.51713,0,0,1-79.3784-134.36662,418.3921,418.3921,0,0,1-19.98182-78.98827Z" transform="translate(0.00003 0.00003)"/><path class="cls-12" d="M21.06608,11.22621A448.4948,448.4948,0,0,0,9.61783,82.63249L8.52816,96.25341l30.206,2.82507L39.83812,85.1A416.10777,416.10777,0,0,1,50.51526,18.63464L53.79814,5.33239,33.4033,0H23.8266Z" transform="translate(0.00003 0.00003)"/><path class="cls-17" d="M0,385.05q1.72764,4.59027,3.524,9.1532H.7024Q.34962,393.305,0,392.40571V385.05ZM99.89932,0A503.03128,503.03128,0,0,0,81.55407,268.6519L71.39284,270.854a518.36365,518.36365,0,0,0,30.02239,96.94583q5.63433,13.36982,12.01149,26.40326H80.72558A544.72079,544.72079,0,0,1,57.70213,0ZM148.123,0H133.52132a472.3556,472.3556,0,0,0,27.56,394.20313h15.2946a463.08011,463.08011,0,0,1-23.842-48.36679A458.12065,458.12065,0,0,1,148.123,0ZM25.88272,394.20314h1.2112l1.39054-.573A599.33066,599.33066,0,0,1,3.2522,318.36793l-2.55139.70236A601.32218,601.32218,0,0,0,25.88272,394.20314ZM0,18.21828Q2.36306,9.09608,5.02792,0H7.78471Q3.50454,14.537,0,29.14369ZM219.44357,0q-5.066,10.72628-9.53089,21.90173a391.82722,391.82722,0,0,0,39.34789,365.26459l-2.138,1.52671A394.72538,394.72538,0,0,1,207.45914,20.89442q4.2527-10.6483,9.058-20.89441Zm-11.29076,360.6438-22.90717,12.48648a442.71417,442.71417,0,0,1-28.06541-64.36285l24.57307-8.63425c3.02489,8.74674,6.297,17.3887,9.90047,25.90668q7.445,17.67952,16.499,34.604ZM192.64626,0q-2.05638,4.8035-4.00584,9.68463a415.13156,415.13156,0,0,0-15.45433,262.52915l-25.09384,6.86532A441.65013,441.65013,0,0,1,164.434,0Z" transform="translate(0.00003 0.00003)"/><path class="cls-18" d="M119.38181,302.02827A465.18065,465.18065,0,0,1,96.01836,120.839l11.08951.88163a453.59276,453.59276,0,0,0,22.8678,176.79532Z" transform="translate(0.00003 0.00003)"/><path class="cls-18" d="M205.65633,257.61369A370.205,370.205,0,0,1,224.45563,0h2.70656q-6.60543,14.25571-11.95649,29.04075a367.45348,367.45348,0,0,0-7.17,227.87814Z" transform="translate(0.00003 0.00003)"/><path class="cls-18" d="M153.21981,313.44475l-3.94624,1.57592a441.49972,441.49972,0,0,1-30.27178-156.55346l4.221-.05472A436.63753,436.63753,0,0,0,153.21981,313.44475Z" transform="translate(0.00003 0.00003)"/><path class="cls-18" d="M141.96723,27.37628l-4.042-1.23586Q141.90914,12.93582,146.69723,0h4.49609q-.943,2.51624-1.85551,5.0443C146.66982,12.42377,144.23576,19.86568,141.96723,27.37628Z" transform="translate(0.00003 0.00003)"/><path class="cls-18" d="M202.05848,330.27028l7.279-3.56733c5.1784,10.606,10.84961,20.79679,16.83882,30.69611l-26.51085,16.40833A429.38731,429.38731,0,0,1,177.23212,331.638a423.34324,423.34324,0,0,1-36.85133-134.27119l22.8662-2.40059A399.96913,399.96913,0,0,0,198.0422,321.85661C199.34219,324.68214,200.68893,327.49376,202.05848,330.27028Z" transform="translate(0.00003 0.00003)"/><path class="cls-18" d="M29.34055,0q-3.45763,12.05042-6.37536,24.25534l11.89943,2.90793A542.57772,542.57772,0,0,0,69.95081,382.129q2.8128,6.08936,5.75584,12.0741H59.338q-1.37448-2.89087-2.71987-5.8053A557.708,557.708,0,0,1,26.77292,0Z" transform="translate(0.00003 0.00003)"/><path class="cls-18" d="M0,394.20314v-2.92752q.61545,1.46438,1.23871,2.92752Z" transform="translate(0.00003 0.00003)"/><path class="cls-18" d="M112.18681,394.20314q-6.7482-12.68619-12.85528-25.90344A510.05833,510.05833,0,0,1,76.01956,0h4.5632a508.43225,508.43225,0,0,0-15.8004,63.35513L87.71815,67.5899a481.28214,481.28214,0,0,0,36.71328,288.90172q2.35264,5.121,4.84838,10.16141l8.76423-4.30347q8.02584,16.38162,17.13436,31.85358Z" transform="translate(0.00003 0.00003)"/><path class="cls-18" d="M6.616,0Q3.00373,13.09816,0,26.36922V15.65353Q1.92657,7.79656,4.06937,0ZM0,281.97371A580.329,580.329,0,0,0,37.94458,394.20314H35.22065A583.29923,583.29923,0,0,1,0,292.72072Z" transform="translate(0.00003 0.00003)"/><path class="cls-18" d="M222.57621,264.96257l-24.84007,7.26077-3.29332-11.259C169.32433,175.09291,175.77677,81.88028,211.65057,0H240.1278a347.5274,347.5274,0,0,0-13.92822,33.086,353.36311,353.36311,0,0,0-6.95191,220.48566Z" transform="translate(0.00003 0.00003)"/><path class="cls-19" d="M0,359.24894q6.427,17.6202,13.98042,34.9542H0Z" transform="translate(0.00003 0.00003)"/><path class="cls-20" d="M60.16625,394.20314q-6.1948-12.43544-11.81918-25.25583A560.21537,560.21537,0,0,1,19.67434,0H0V394.20314Z" transform="translate(0.00003 0.00003)"/><path class="cls-19" d="M126.85242,394.20314l-.21686-.37638A498.46018,498.46018,0,0,1,63.84476,86.899l5.31438-44.8973L48.41729,39.48712Q52.62083,19.57927,58.39864,0H0V394.20314Z" transform="translate(0.00003 0.00003)"/><path class="cls-20" d="M0,353.58415Q5.90106,369.33781,12.70847,384.874q2.05569,4.68833,4.18454,9.3291H0Z" transform="translate(0.00003 0.00003)"/><path class="cls-21" d="M137.42619,0q-5.94685,17.1582-10.47294,34.73541l-3.12819,12.10486-18.54132-4.982a466.46752,466.46752,0,0,0-9.56539,60.168l23.86406,1.91648-.80291,11.66283q-.82681,12.08638-1.01164,24.12738l17.04277-.195.10346,11.82208q.12614,13.88128,1.15559,27.65593l37.59964-3.95673,1.21026,11.74491a388.0114,388.0114,0,0,0,32.67133,120.714l7.11482-3.48526,5.143,10.49609c4.806,9.801,10.1559,19.541,16.34356,29.7732l6.08437,10.05856-46.43553,28.75766-6.11194-10.0918A441.51755,441.51755,0,0,1,166.63592,329.69q-3.08087-6.69749-5.95359-13.4747l-18.00611,7.17756-4.2833-10.98737q-1.9262-4.967-3.74562-9.94833l-14.92066,4.943q6.71436,18.46156,15.00251,36.51242l8.66238-4.24875,5.14334,10.50977a461.8999,461.8999,0,0,0,24.63294,44.02957H71.45317A548.10356,548.10356,0,0,1,13.0044,143.46728,550.2206,550.2206,0,0,1,32.76753,0Z" transform="translate(0.00003 0.00003)"/><path class="cls-18" d="M126.73837,22.69856Q130.19292,11.24167,134.23273,0h29.489q-1.75035,4.52708-3.39613,9.08633c-2.46141,6.80828-4.80582,13.90964-7.17174,21.733l-3.39741,11.28051-26.42628-8.087Z" transform="translate(0.00003 0.00003)"/></svg>